<?xml version="1.0" encoding="utf-8"?>
<!-- Generator: Adobe Illustrator 22.0.1, SVG Export Plug-In . SVG Version: 6.00 Build 0)  -->
<svg version="1.1" id="Layer_1" xmlns="http://www.w3.org/2000/svg" xmlns:xlink="http://www.w3.org/1999/xlink" x="0px" y="0px"
	 viewBox="0 0 970 380" style="enable-background:new 0 0 970 380;" xml:space="preserve">
<style type="text/css">
	.st0{fill:none;stroke:#004C81;stroke-width:1.3642;stroke-miterlimit:10;}
	.st1{fill:#004C81;}
	.st2{fill:#60C6F2;}
	.st3{fill:#0072BB;}
	.st4{fill:#18244C;}
	.st5{enable-background:new    ;}
	.st6{fill:#FFFFFF;}
	.st7{fill:#ACB3BA;}
	.st8{fill:#A0ABB5;}
	.st9{fill:#C3D0DB;}
	.st10{fill:#CDD6E0;}
	.st11{fill:url(#SVGID_1_);}
	.st12{fill:url(#SVGID_2_);}
	.st13{fill:url(#SVGID_3_);}
	.st14{fill:url(#SVGID_4_);}
	.st15{fill:url(#SVGID_5_);}
	.st16{fill:url(#SVGID_6_);}
	.st17{fill:url(#SVGID_7_);}
	.st18{fill:url(#SVGID_8_);}
	.st19{fill:url(#SVGID_9_);}
	.st20{fill:url(#SVGID_10_);}
	.st21{fill:url(#SVGID_11_);}
	.st22{fill:url(#SVGID_12_);}
	.st23{fill:url(#SVGID_13_);}
	.st24{fill:url(#SVGID_14_);}
	.st25{fill:url(#SVGID_15_);}
	.st26{fill:url(#SVGID_16_);}
	.st27{fill:url(#SVGID_17_);}
	.st28{fill:url(#SVGID_18_);}
	.st29{fill:url(#SVGID_19_);}
	.st30{fill:url(#SVGID_20_);}
	.st31{fill:url(#SVGID_21_);}
	.st32{fill:url(#SVGID_22_);}
	.st33{fill:url(#SVGID_23_);}
	.st34{fill:url(#SVGID_24_);}
	.st35{fill:url(#SVGID_25_);}
	.st36{fill:url(#SVGID_26_);}
	.st37{fill:url(#SVGID_27_);}
	.st38{fill:url(#SVGID_28_);}
	.st39{fill:url(#SVGID_29_);}
	.st40{fill:url(#SVGID_30_);}
	.st41{fill:url(#SVGID_31_);}
	.st42{fill:url(#SVGID_32_);}
	.st43{fill:url(#SVGID_33_);}
</style>
<line class="st0" x1="683.6" y1="178.8" x2="777.6" y2="178.8"/>
<path class="st0" d="M683.6,119.2c61.1,0,59.1,59.6,94,59.6"/>
<path class="st0" d="M683.6,238.4c61.1,0,59.1-59.6,94-59.6"/>
<polygon class="st1" points="776.1,172.9 783.7,178.8 776.1,184.7 "/>
<path class="st2" d="M519.3,145.1h149c1.7,0,3-1.3,3-3v-44c0-1.7-1.3-3-3-3h-149c-1.7,0-3,1.3-3,3v44
	C516.3,143.7,517.6,145.1,519.3,145.1z"/>
<path class="st3" d="M519.3,204.6h149c1.7,0,3-1.3,3-3v-44c0-1.7-1.3-3-3-3h-149c-1.7,0-3,1.3-3,3v44
	C516.3,203.2,517.6,204.6,519.3,204.6z"/>
<path class="st4" d="M519.3,263.6h149c1.7,0,3-1.3,3-3v-44c0-1.7-1.3-3-3-3h-149c-1.7,0-3,1.3-3,3v44
	C516.3,262.3,517.6,263.6,519.3,263.6z"/>
<line class="st0" x1="503.2" y1="178.8" x2="409.2" y2="178.8"/>
<path class="st0" d="M503.2,119.2c-61.1,0-59.1,59.6-94,59.6"/>
<path class="st0" d="M503.2,238.4c-61.1,0-59.1-59.6-94-59.6"/>
<polygon class="st1" points="496.5,113.5 504.1,119.3 496.5,125.2 "/>
<polygon class="st1" points="496.2,172.9 503.9,178.8 496.2,184.7 "/>
<line class="st0" x1="293.2" y1="179.8" x2="199.2" y2="179.8"/>
<polygon class="st1" points="286.2,173.9 293.9,179.8 286.2,185.7 "/>
<polygon class="st1" points="496.6,232.4 504.3,238.3 496.6,244.1 "/>
<g class="st5">
	<path class="st6" d="M609.9,116.4v8.4h-1.6v-3.6h-3.8v3.6h-1.6v-8.4h1.6v3.4h3.8v-3.4H609.9z"/>
	<path class="st6" d="M617.9,117.8h-2.7v7h-1.6v-7h-2.7v-1.4h7V117.8z"/>
	<path class="st6" d="M625.2,117.8h-2.7v7h-1.6v-7h-2.7v-1.4h7V117.8z"/>
	<path class="st6" d="M626.3,124.8v-8.4h3.6c0.4,0,0.7,0.1,1.1,0.2s0.6,0.4,0.8,0.6c0.2,0.3,0.4,0.6,0.6,0.9c0.1,0.3,0.2,0.7,0.2,1
		c0,0.4-0.1,0.7-0.2,1c-0.1,0.3-0.3,0.6-0.5,0.9s-0.5,0.5-0.8,0.6c-0.3,0.2-0.7,0.2-1.1,0.2h-2v2.8h-1.7V124.8z M627.9,120.5h1.9
		c0.3,0,0.6-0.1,0.8-0.4c0.2-0.2,0.3-0.6,0.3-1c0-0.2,0-0.4-0.1-0.6s-0.1-0.3-0.2-0.4c-0.1-0.1-0.2-0.2-0.4-0.3
		c-0.1-0.1-0.3-0.1-0.4-0.1H628L627.9,120.5L627.9,120.5z"/>
</g>
<g class="st5">
	<path class="st6" d="M607.6,178v8.4H606v-3.6h-3.8v3.6h-1.6V178h1.6v3.4h3.8V178H607.6z"/>
	<path class="st6" d="M615.6,179.4h-2.7v7h-1.6v-7h-2.7V178h7V179.4z"/>
	<path class="st6" d="M622.9,179.4h-2.7v7h-1.6v-7h-2.7V178h7V179.4z"/>
	<path class="st6" d="M624,186.4V178h3.6c0.4,0,0.7,0.1,1.1,0.2s0.6,0.4,0.8,0.6c0.2,0.3,0.4,0.6,0.6,0.9c0.1,0.3,0.2,0.7,0.2,1
		c0,0.4-0.1,0.7-0.2,1c-0.1,0.3-0.3,0.6-0.5,0.9s-0.5,0.5-0.8,0.6c-0.3,0.2-0.7,0.2-1.1,0.2h-2v2.8H624V186.4z M625.6,182.1h1.9
		c0.3,0,0.6-0.1,0.8-0.4c0.2-0.2,0.3-0.6,0.3-1c0-0.2,0-0.4-0.1-0.6c-0.1-0.2-0.1-0.3-0.2-0.4c-0.1-0.1-0.2-0.2-0.4-0.3
		c-0.1-0.1-0.3-0.1-0.4-0.1h-1.8L625.6,182.1L625.6,182.1z"/>
	<path class="st6" d="M636.4,180.2c-0.1-0.1-0.2-0.1-0.3-0.2s-0.3-0.2-0.5-0.3s-0.4-0.2-0.7-0.2c-0.2-0.1-0.5-0.1-0.7-0.1
		c-0.5,0-0.8,0.1-1,0.2c-0.2,0.2-0.3,0.4-0.3,0.7c0,0.2,0,0.3,0.1,0.4c0.1,0.1,0.2,0.2,0.4,0.3s0.4,0.2,0.6,0.2
		c0.2,0.1,0.5,0.1,0.8,0.2c0.4,0.1,0.8,0.2,1.1,0.4s0.6,0.3,0.9,0.5c0.2,0.2,0.4,0.4,0.5,0.7s0.2,0.6,0.2,1c0,0.5-0.1,0.8-0.3,1.2
		s-0.4,0.6-0.7,0.8s-0.6,0.3-1,0.4c-0.4,0.1-0.8,0.1-1.2,0.1c-0.6,0-1.3-0.1-1.9-0.3s-1.2-0.5-1.7-0.8l0.7-1.4
		c0.1,0.1,0.2,0.2,0.4,0.3s0.4,0.2,0.7,0.3s0.5,0.2,0.8,0.3s0.6,0.1,0.9,0.1c0.9,0,1.4-0.3,1.4-0.9c0-0.2-0.1-0.3-0.2-0.5
		c-0.1-0.1-0.2-0.2-0.4-0.3s-0.4-0.2-0.7-0.3s-0.6-0.2-0.9-0.3c-0.4-0.1-0.8-0.2-1-0.4s-0.5-0.3-0.7-0.5s-0.3-0.4-0.4-0.6
		c-0.1-0.2-0.1-0.5-0.1-0.8c0-0.4,0.1-0.8,0.2-1.1c0.2-0.3,0.4-0.6,0.7-0.8s0.6-0.4,1-0.5s0.8-0.2,1.2-0.2c0.6,0,1.1,0.1,1.6,0.3
		s0.9,0.4,1.3,0.7L636.4,180.2z"/>
</g>
<g class="st5">
	<path class="st3" d="M473.8,113.4V105h1.6v8.4H473.8z"/>
	<path class="st3" d="M477.2,113.4V105h3.6c0.4,0,0.7,0.1,1.1,0.2c0.3,0.2,0.6,0.4,0.8,0.6s0.4,0.6,0.6,0.9c0.1,0.3,0.2,0.7,0.2,1
		c0,0.4-0.1,0.7-0.2,1s-0.3,0.6-0.5,0.9s-0.5,0.5-0.8,0.6s-0.7,0.2-1.1,0.2h-2v2.8h-1.7V113.4z M478.8,109.1h1.9
		c0.3,0,0.6-0.1,0.8-0.4s0.3-0.6,0.3-1c0-0.2,0-0.4-0.1-0.6s-0.1-0.3-0.2-0.4s-0.2-0.2-0.4-0.3c-0.1-0.1-0.3-0.1-0.4-0.1h-1.8
		L478.8,109.1L478.8,109.1z"/>
</g>
<g class="st5">
	<path class="st3" d="M473.8,172v-8.4h1.6v8.4H473.8z"/>
	<path class="st3" d="M477.2,172v-8.4h3.6c0.4,0,0.7,0.1,1.1,0.2c0.3,0.2,0.6,0.4,0.8,0.6s0.4,0.6,0.6,0.9c0.1,0.3,0.2,0.7,0.2,1
		c0,0.4-0.1,0.7-0.2,1s-0.3,0.6-0.5,0.9c-0.2,0.3-0.5,0.5-0.8,0.6s-0.7,0.2-1.1,0.2h-2v2.8h-1.7V172z M478.8,167.8h1.9
		c0.3,0,0.6-0.1,0.8-0.4s0.3-0.6,0.3-1c0-0.2,0-0.4-0.1-0.6c-0.1-0.2-0.1-0.3-0.2-0.4c-0.1-0.1-0.2-0.2-0.4-0.3
		c-0.1-0.1-0.3-0.1-0.4-0.1h-1.8L478.8,167.8L478.8,167.8z"/>
</g>
<g class="st5">
	<path class="st3" d="M473.8,227.1v-8.4h1.6v8.4H473.8z"/>
	<path class="st3" d="M477.2,227.1v-8.4h3.6c0.4,0,0.7,0.1,1.1,0.2c0.3,0.2,0.6,0.4,0.8,0.6s0.4,0.6,0.6,0.9c0.1,0.3,0.2,0.7,0.2,1
		c0,0.4-0.1,0.7-0.2,1s-0.3,0.6-0.5,0.9c-0.2,0.3-0.5,0.5-0.8,0.6s-0.7,0.2-1.1,0.2h-2v2.8h-1.7V227.1z M478.8,222.9h1.9
		c0.3,0,0.6-0.1,0.8-0.4s0.3-0.6,0.3-1c0-0.2,0-0.4-0.1-0.6c-0.1-0.2-0.1-0.3-0.2-0.4c-0.1-0.1-0.2-0.2-0.4-0.3
		c-0.1-0.1-0.3-0.1-0.4-0.1h-1.8L478.8,222.9L478.8,222.9z"/>
</g>
<g>
	<path class="st6" d="M543.5,106.5c-1.4,0-2.6,1.1-2.6,2.6s1.1,2.6,2.6,2.6c1.4,0,2.6-1.1,2.6-2.6S544.9,106.5,543.5,106.5z
		 M543.5,110.5c-0.8,0-1.4-0.6-1.4-1.4s0.6-1.4,1.4-1.4c0.8,0,1.4,0.6,1.4,1.4S544.2,110.5,543.5,110.5z"/>
	<circle class="st6" cx="565.9" cy="108.2" r="0.6"/>
	<circle class="st6" cx="563.6" cy="108.2" r="0.6"/>
	<circle class="st6" cx="567" cy="109.9" r="0.6"/>
	<circle class="st6" cx="564.7" cy="109.9" r="0.6"/>
	<circle class="st6" cx="561.3" cy="108.2" r="0.6"/>
	<circle class="st6" cx="562.5" cy="109.9" r="0.6"/>
	<circle class="st6" cx="559.1" cy="108.2" r="0.6"/>
	<circle class="st6" cx="560.2" cy="109.9" r="0.6"/>
	<circle class="st6" cx="556.8" cy="108.2" r="0.6"/>
	<circle class="st6" cx="557.9" cy="109.9" r="0.6"/>
	<path class="st6" d="M543.5,117.3c-1.4,0-2.6,1.1-2.6,2.6c0,1.4,1.1,2.6,2.6,2.6c1.4,0,2.6-1.1,2.6-2.6
		C546,118.4,544.9,117.3,543.5,117.3z M543.5,121.3c-0.8,0-1.4-0.6-1.4-1.4s0.6-1.4,1.4-1.4c0.8,0,1.4,0.6,1.4,1.4
		S544.2,121.3,543.5,121.3z"/>
	<path class="st6" d="M543.5,128.1c-1.4,0-2.6,1.1-2.6,2.6c0,1.4,1.1,2.6,2.6,2.6c1.4,0,2.6-1.1,2.6-2.6
		C546,129.2,544.9,128.1,543.5,128.1z M543.5,132.1c-0.8,0-1.4-0.6-1.4-1.4c0-0.8,0.6-1.4,1.4-1.4c0.8,0,1.4,0.6,1.4,1.4
		C544.9,131.4,544.2,132.1,543.5,132.1z"/>
	<path class="st6" d="M571.5,112.4v-6.7c0-1.4-1.2-2.6-2.6-2.6h-28.8c-1.4,0-2.6,1.2-2.6,2.6v6.7c0,0.8,0.4,1.6,1,2
		c-0.6,0.5-1,1.2-1,2v6.7c0,0.8,0.4,1.6,1,2c-0.6,0.5-1,1.2-1,2v6.7c0,1.4,1.2,2.6,2.6,2.6h15.8c1.5,0.3,3.2,0.4,4.8,0.4
		c4.9,0,10.1-1.3,10.7-3.7c0-0.1,0.1-0.2,0.1-0.3v-5.1v-0.2v-0.2v-4.7v-0.2v-0.2v-4.9v-0.2c0-0.1,0-0.2-0.1-0.2
		c-0.2-0.8-0.9-1.5-2-2.1C570.6,114.7,571.5,113.7,571.5,112.4z M538.6,123.2v-6.7c0-0.8,0.7-1.5,1.5-1.5h11.8c-1,0.6-1.7,1.2-1.9,2
		c0,0.1-0.1,0.2-0.1,0.2v0.2v4.9v0.2v0.2v1.8H540C539.3,124.7,538.6,124,538.6,123.2z M551.5,119.7
		C551.5,119.7,551.5,119.8,551.5,119.7c0.2,0.1,0.3,0.2,0.4,0.2c0,0,0.1,0,0.1,0.1c0.1,0.1,0.3,0.1,0.4,0.2c0,0,0,0,0.1,0
		c0.1,0.1,0.3,0.1,0.4,0.2h0.1c0.2,0.1,0.3,0.1,0.5,0.2l0,0c0.2,0.1,0.3,0.1,0.5,0.2h0.1c0.2,0,0.3,0.1,0.5,0.1l0,0
		c0.2,0,0.4,0.1,0.6,0.1h0.1c0.2,0,0.3,0.1,0.5,0.1h0.1c0.2,0,0.4,0.1,0.6,0.1h0.1c0.2,0,0.3,0,0.5,0.1h0.1c0.2,0,0.4,0,0.6,0.1h0.1
		c0.2,0,0.3,0,0.5,0c0.1,0,0.1,0,0.2,0c0.2,0,0.4,0,0.6,0h0.1c0.2,0,0.4,0,0.6,0c0.1,0,0.1,0,0.2,0c0.2,0,0.4,0,0.6,0s0.4,0,0.6,0
		c0.1,0,0.1,0,0.2,0c0.2,0,0.4,0,0.6,0h0.1c0.2,0,0.4,0,0.6,0c0.1,0,0.1,0,0.2,0c0.2,0,0.3,0,0.5,0h0.1c0.2,0,0.4,0,0.6-0.1h0.1
		c0.2,0,0.3,0,0.5-0.1h0.1c0.2,0,0.4-0.1,0.6-0.1h0.1c0.2,0,0.3-0.1,0.5-0.1h0.1c0.2,0,0.4-0.1,0.6-0.1l0,0c0.2,0,0.3-0.1,0.5-0.1
		h0.1c0.2,0,0.3-0.1,0.5-0.2l0,0c0.2-0.1,0.3-0.1,0.5-0.2h0.1c0.1-0.1,0.3-0.1,0.4-0.2c0,0,0,0,0.1,0c0.1-0.1,0.3-0.1,0.4-0.2
		c0,0,0.1,0,0.1-0.1c0.1-0.1,0.2-0.1,0.3-0.2h0.1c0.1-0.1,0.2-0.2,0.3-0.2l0,0v2.8c0,0.1,0,0.1,0,0.2v0.1c0,0.1,0,0.1,0,0.2v0.1
		c0,0,0,0.1-0.1,0.1l-0.1,0.1c0,0.1-0.1,0.1-0.1,0.2c0,0,0,0-0.1,0.1c-1.2,1.2-4.7,2.2-9.2,2.2s-8-1-9.2-2.2c0,0,0,0-0.1-0.1
		s-0.1-0.1-0.1-0.2l-0.1-0.1c0,0,0-0.1-0.1-0.1c0-0.1,0-0.1,0-0.2s0-0.1,0-0.2v-0.1c0-0.1,0-0.1,0-0.2v-2.8l0,0
		C551.2,119.6,551.4,119.6,551.5,119.7z M570.3,128.1c0,0,0,0.1-0.1,0.1l-0.1,0.1c0,0.1-0.1,0.1-0.1,0.2c0,0,0,0-0.1,0.1
		c-1.2,1.2-4.7,2.2-9.2,2.2s-8-1-9.2-2.2c0,0,0,0-0.1-0.1s-0.1-0.1-0.1-0.2l-0.1-0.1c0,0,0-0.1-0.1-0.1c0-0.1,0-0.1,0-0.2
		c0-0.1,0-0.1,0-0.2v-0.1v-0.1v-0.1v-2.8v-0.1c0,0,0,0,0.1,0.1s0.1,0.1,0.2,0.2c0.1,0,0.1,0.1,0.2,0.1c0.1,0.1,0.2,0.1,0.3,0.2l0,0
		c1.2,0.6,2.8,1.1,4.6,1.4l0,0c0.6,0.1,1.2,0.2,1.8,0.2c0.1,0,0.3,0,0.4,0c0.1,0,0.3,0,0.4,0c0.2,0,0.3,0,0.5,0c0.1,0,0.2,0,0.3,0
		c0.3,0,0.6,0,0.8,0c0.3,0,0.6,0,0.8,0c0.1,0,0.2,0,0.3,0c0.2,0,0.3,0,0.5,0c0.1,0,0.3,0,0.4,0c0.1,0,0.3,0,0.4,0
		c0.6-0.1,1.2-0.1,1.8-0.2l0,0c2-0.3,3.7-0.8,4.9-1.6c0.1,0,0.1-0.1,0.2-0.1c0.1-0.1,0.2-0.1,0.2-0.2c0,0,0.1,0,0.1-0.1v2.8
		c0,0.1,0,0.1,0,0.2v0.1c0,0.1,0,0.1,0,0.2C570.4,128,570.3,128,570.3,128.1z M540.1,135.5c-0.8,0-1.5-0.7-1.5-1.5v-6.7
		c0-0.8,0.7-1.5,1.5-1.5h9.9v1.7v0.2v0.2v5.1v0.6h0.2c0,0,0,0,0,0.1c0,0,0,0.1,0.1,0.1c0,0.1,0.1,0.2,0.2,0.2
		c0.1,0.1,0.1,0.2,0.2,0.2l0.1,0.1c0.2,0.2,0.5,0.4,0.8,0.6l0,0c0.2,0.1,0.5,0.3,0.7,0.4L540.1,135.5L540.1,135.5z M570.4,132.9
		L570.4,132.9c-0.2,1.5-4.2,3-9.6,3c-1.7,0-3.3-0.2-4.7-0.4l0,0c-2.8-0.5-4.4-1.4-4.8-2.2l0,0v-0.1c0-0.1-0.1-0.1-0.1-0.2v-3.3
		c0,0,0,0,0.1,0c0.1,0.1,0.1,0.1,0.2,0.2c0.1,0,0.1,0.1,0.2,0.1c0.1,0.1,0.2,0.1,0.3,0.2l0,0c1.2,0.6,2.8,1.1,4.6,1.4l0,0
		c0.6,0.1,1.2,0.2,1.8,0.2c0.1,0,0.3,0,0.4,0c0.1,0,0.3,0,0.4,0c0.2,0,0.3,0,0.5,0c0.1,0,0.2,0,0.3,0c0.3,0,0.6,0,0.8,0
		c0.3,0,0.6,0,0.8,0c0.1,0,0.2,0,0.3,0c0.2,0,0.3,0,0.5,0c0.1,0,0.3,0,0.4,0c0.1,0,0.3,0,0.4,0c0.6-0.1,1.2-0.1,1.8-0.2l0,0
		c2-0.3,3.7-0.8,4.9-1.6c0.1,0,0.1-0.1,0.2-0.1c0.1-0.1,0.2-0.1,0.2-0.2c0,0,0.1,0,0.1-0.1C570.4,129.7,570.4,132.9,570.4,132.9z
		 M570.4,117.5c0,1.4-4.1,3-9.6,3s-9.6-1.6-9.6-3c0-0.1,0-0.1,0-0.2s0.1-0.1,0.1-0.2l0,0c0.2-0.3,0.6-0.7,1.2-1h0.1
		c0.1-0.1,0.2-0.1,0.3-0.2s0.3-0.1,0.4-0.2h0.1c0.7-0.3,1.5-0.5,2.3-0.7c0.3-0.1,0.6-0.1,0.9-0.2c0.1,0,0.2,0,0.2,0
		c2.5-0.4,5.5-0.4,8,0c0.1,0,0.2,0,0.2,0c0.3,0,0.6,0.1,0.9,0.2C568.6,115.6,570.4,116.6,570.4,117.5z M570.4,112.4
		c0,0.8-0.7,1.5-1.5,1.5h-2.6h-0.1c-0.4-0.1-0.8-0.2-1.1-0.2H565c-1.3-0.2-2.8-0.3-4.2-0.3s-2.8,0.1-4.2,0.3h-0.1
		c-0.4,0.1-0.8,0.1-1.1,0.2h-0.1h-15.1c-0.8,0-1.5-0.7-1.5-1.5v-6.7c0-0.8,0.7-1.5,1.5-1.5H569c0.8,0,1.5,0.7,1.5,1.5L570.4,112.4
		L570.4,112.4z"/>
</g>
<g>
	<path class="st6" d="M543.8,166.5c-1.4,0-2.6,1.1-2.6,2.6c0,1.4,1.1,2.6,2.6,2.6c1.4,0,2.6-1.1,2.6-2.6
		C546.4,167.6,545.2,166.5,543.8,166.5z M543.8,170.4c-0.8,0-1.4-0.6-1.4-1.4c0-0.8,0.6-1.4,1.4-1.4c0.8,0,1.4,0.6,1.4,1.4
		C545.3,169.8,544.6,170.4,543.8,170.4z"/>
	<circle class="st6" cx="566.3" cy="168.2" r="0.6"/>
	<circle class="st6" cx="564" cy="168.2" r="0.6"/>
	<circle class="st6" cx="567.4" cy="169.9" r="0.6"/>
	<circle class="st6" cx="565.1" cy="169.9" r="0.6"/>
	<circle class="st6" cx="561.7" cy="168.2" r="0.6"/>
	<circle class="st6" cx="562.8" cy="169.9" r="0.6"/>
	<circle class="st6" cx="559.4" cy="168.2" r="0.6"/>
	<circle class="st6" cx="560.6" cy="169.9" r="0.6"/>
	<circle class="st6" cx="557.2" cy="168.2" r="0.6"/>
	<circle class="st6" cx="558.3" cy="169.9" r="0.6"/>
	<path class="st6" d="M543.8,177.3c-1.4,0-2.6,1.1-2.6,2.6s1.1,2.6,2.6,2.6c1.4,0,2.6-1.1,2.6-2.6S545.2,177.3,543.8,177.3z
		 M543.8,181.2c-0.8,0-1.4-0.6-1.4-1.4s0.6-1.4,1.4-1.4c0.8,0,1.4,0.6,1.4,1.4S544.6,181.2,543.8,181.2z"/>
	<path class="st6" d="M543.8,188c-1.4,0-2.6,1.1-2.6,2.6c0,1.4,1.1,2.6,2.6,2.6c1.4,0,2.6-1.1,2.6-2.6
		C546.4,189.2,545.2,188,543.8,188z M543.8,192c-0.8,0-1.4-0.6-1.4-1.4c0-0.8,0.6-1.4,1.4-1.4c0.8,0,1.4,0.6,1.4,1.4
		C545.3,191.4,544.6,192,543.8,192z"/>
	<path class="st6" d="M571.9,172.4v-6.7c0-1.4-1.2-2.6-2.6-2.6h-28.8c-1.4,0-2.6,1.2-2.6,2.6v6.7c0,0.8,0.4,1.6,1,2
		c-0.6,0.5-1,1.2-1,2v6.7c0,0.8,0.4,1.6,1,2c-0.6,0.5-1,1.2-1,2v6.7c0,1.4,1.2,2.6,2.6,2.6h15.8c1.5,0.3,3.2,0.4,4.8,0.4
		c4.9,0,10.1-1.3,10.7-3.7c0-0.1,0.1-0.2,0.1-0.3v-5.1v-0.2v-0.2v-4.7v-0.2v-0.2v-4.9v-0.2c0-0.1,0-0.2-0.1-0.2
		c-0.2-0.8-0.9-1.5-2-2.1C571,174.7,571.9,173.6,571.9,172.4z M539,183.1v-6.7c0-0.8,0.7-1.5,1.5-1.5h11.8c-1,0.6-1.7,1.2-1.9,2
		c0,0.1-0.1,0.2-0.1,0.2v0.2v4.9v0.2v0.2v1.8h-9.9C539.7,184.6,539,184,539,183.1z M551.9,179.7L551.9,179.7
		c0.2,0.1,0.3,0.2,0.4,0.2c0,0,0.1,0,0.1,0.1c0.1,0.1,0.3,0.1,0.4,0.2c0,0,0,0,0.1,0c0.1,0.1,0.3,0.1,0.4,0.2h0.1
		c0.2,0.1,0.3,0.1,0.5,0.2l0,0c0.2,0.1,0.3,0.1,0.5,0.2h0.1c0.2,0,0.3,0.1,0.5,0.1l0,0c0.2,0,0.4,0.1,0.6,0.1h0.1
		c0.2,0,0.3,0.1,0.5,0.1h0.1c0.2,0,0.4,0.1,0.6,0.1h0.1c0.2,0,0.3,0,0.5,0.1h0.1c0.2,0,0.4,0,0.6,0.1h0.1c0.2,0,0.3,0,0.5,0
		c0.1,0,0.1,0,0.2,0c0.2,0,0.4,0,0.6,0h0.1c0.2,0,0.4,0,0.6,0c0.1,0,0.1,0,0.2,0c0.2,0,0.4,0,0.6,0s0.4,0,0.6,0c0.1,0,0.1,0,0.2,0
		c0.2,0,0.4,0,0.6,0h0.1c0.2,0,0.4,0,0.6,0c0.1,0,0.1,0,0.2,0c0.2,0,0.3,0,0.5,0h0.1c0.2,0,0.4,0,0.6-0.1h0.1c0.2,0,0.3,0,0.5-0.1
		h0.1c0.2,0,0.4-0.1,0.6-0.1h0.1c0.2,0,0.3-0.1,0.5-0.1h0.1c0.2,0,0.4-0.1,0.6-0.1l0,0c0.2,0,0.3-0.1,0.5-0.1h0.1
		c0.2,0,0.3-0.1,0.5-0.2l0,0c0.2-0.1,0.3-0.1,0.5-0.2h0.1c0.1-0.1,0.3-0.1,0.4-0.2c0,0,0,0,0.1,0c0.1-0.1,0.3-0.1,0.4-0.2
		c0,0,0.1,0,0.1-0.1c0.1-0.1,0.2-0.1,0.3-0.2h0.1c0.1-0.1,0.2-0.2,0.3-0.2l0,0v2.8c0,0.1,0,0.1,0,0.2v0.1c0,0.1,0,0.1,0,0.2v0.1
		c0,0,0,0.1-0.1,0.1l-0.1,0.1c0,0.1-0.1,0.1-0.1,0.2c0,0,0,0-0.1,0.1c-1.2,1.2-4.7,2.2-9.2,2.2s-8-1-9.2-2.2c0,0,0,0-0.1-0.1
		s-0.1-0.1-0.1-0.2l-0.1-0.1c0,0,0-0.1-0.1-0.1c0-0.1,0-0.1,0-0.2c0-0.1,0-0.1,0-0.2v-0.1c0-0.1,0-0.1,0-0.2v-2.8l0,0
		C551.6,179.5,551.7,179.6,551.9,179.7z M570.7,188c0,0,0,0.1-0.1,0.1l-0.1,0.1c0,0.1-0.1,0.1-0.1,0.2c0,0,0,0-0.1,0.1
		c-1.2,1.2-4.7,2.2-9.2,2.2s-8-1-9.2-2.2c0,0,0,0-0.1-0.1s-0.1-0.1-0.1-0.2l-0.1-0.1c0,0,0-0.1-0.1-0.1c0-0.1,0-0.1,0-0.2
		c0-0.1,0-0.1,0-0.2v-0.1v-0.1v-0.1v-2.8v-0.1c0,0,0,0,0.1,0.1s0.1,0.1,0.2,0.2c0.1,0,0.1,0.1,0.2,0.1c0.1,0.1,0.2,0.1,0.3,0.2l0,0
		c1.2,0.6,2.8,1.1,4.6,1.4l0,0c0.6,0.1,1.2,0.2,1.8,0.2c0.1,0,0.3,0,0.4,0c0.1,0,0.3,0,0.4,0c0.2,0,0.3,0,0.5,0c0.1,0,0.2,0,0.3,0
		c0.3,0,0.6,0,0.8,0c0.3,0,0.6,0,0.8,0c0.1,0,0.2,0,0.3,0c0.2,0,0.3,0,0.5,0c0.1,0,0.3,0,0.4,0c0.1,0,0.3,0,0.4,0
		c0.6-0.1,1.2-0.1,1.8-0.2l0,0c2-0.3,3.7-0.8,4.9-1.6c0.1,0,0.1-0.1,0.2-0.1c0.1-0.1,0.2-0.1,0.2-0.2c0,0,0.1,0,0.1-0.1v2.8
		c0,0.1,0,0.1,0,0.2v0.1c0,0.1,0,0.1,0,0.2C570.7,187.9,570.7,188,570.7,188z M540.5,195.4c-0.8,0-1.5-0.7-1.5-1.5v-6.7
		c0-0.8,0.7-1.5,1.5-1.5h9.9v1.7v0.2v0.2v5.1v0.6h0.2c0,0,0,0,0,0.1c0,0,0,0.1,0.1,0.1c0,0.1,0.1,0.2,0.2,0.2
		c0.1,0.1,0.1,0.2,0.2,0.2l0.1,0.1c0.2,0.2,0.5,0.4,0.8,0.6l0,0c0.2,0.1,0.5,0.3,0.7,0.4L540.5,195.4L540.5,195.4z M570.8,192.9
		L570.8,192.9c-0.2,1.5-4.2,3-9.6,3c-1.7,0-3.3-0.2-4.7-0.4l0,0c-2.8-0.5-4.4-1.4-4.8-2.2l0,0v-0.1c0-0.1-0.1-0.1-0.1-0.2v-3.3
		c0,0,0,0,0.1,0c0.1,0.1,0.1,0.1,0.2,0.2c0.1,0,0.1,0.1,0.2,0.1c0.1,0.1,0.2,0.1,0.3,0.2l0,0c1.2,0.6,2.8,1.1,4.6,1.4l0,0
		c0.6,0.1,1.2,0.2,1.8,0.2c0.1,0,0.3,0,0.4,0c0.1,0,0.3,0,0.4,0c0.2,0,0.3,0,0.5,0c0.1,0,0.2,0,0.3,0c0.3,0,0.6,0,0.8,0
		c0.3,0,0.6,0,0.8,0c0.1,0,0.2,0,0.3,0c0.2,0,0.3,0,0.5,0c0.1,0,0.3,0,0.4,0c0.1,0,0.3,0,0.4,0c0.6-0.1,1.2-0.1,1.8-0.2l0,0
		c2-0.3,3.7-0.8,4.9-1.6c0.1,0,0.1-0.1,0.2-0.1c0.1-0.1,0.2-0.1,0.2-0.2c0,0,0.1,0,0.1-0.1C570.8,189.6,570.8,192.9,570.8,192.9z
		 M570.8,177.5c0,1.4-4.1,3-9.6,3s-9.6-1.6-9.6-3c0-0.1,0-0.1,0-0.2c0-0.1,0.1-0.1,0.1-0.2l0,0c0.2-0.3,0.6-0.7,1.2-1h0.1
		c0.1-0.1,0.2-0.1,0.3-0.2c0.1-0.1,0.3-0.1,0.4-0.2h0.1c0.7-0.3,1.5-0.5,2.3-0.7c0.3-0.1,0.6-0.1,0.9-0.2c0.1,0,0.2,0,0.2,0
		c2.5-0.4,5.5-0.4,8,0c0.1,0,0.2,0,0.2,0c0.3,0,0.6,0.1,0.9,0.2C569,175.5,570.8,176.5,570.8,177.5z M570.8,172.4
		c0,0.8-0.7,1.5-1.5,1.5h-2.6h-0.1c-0.4-0.1-0.8-0.2-1.1-0.2h-0.1c-1.3-0.2-2.8-0.3-4.2-0.3s-2.8,0.1-4.2,0.3h-0.1
		c-0.4,0.1-0.8,0.1-1.1,0.2h-0.1h-15.1c-0.8,0-1.5-0.7-1.5-1.5v-6.7c0-0.8,0.7-1.5,1.5-1.5h28.8c0.8,0,1.5,0.7,1.5,1.5v6.7H570.8z"
		/>
</g>
<g>
	<path class="st6" d="M544.6,225.3c-1.4,0-2.6,1.1-2.6,2.6c0,1.4,1.1,2.6,2.6,2.6s2.6-1.1,2.6-2.6
		C547.2,226.4,546,225.3,544.6,225.3z M544.6,229.2c-0.8,0-1.4-0.6-1.4-1.4c0-0.8,0.6-1.4,1.4-1.4s1.4,0.6,1.4,1.4
		C546,228.6,545.4,229.2,544.6,229.2z"/>
	<circle class="st6" cx="567" cy="227" r="0.6"/>
	<circle class="st6" cx="564.8" cy="227" r="0.6"/>
	<circle class="st6" cx="568.2" cy="228.7" r="0.6"/>
	<circle class="st6" cx="565.9" cy="228.7" r="0.6"/>
	<circle class="st6" cx="562.5" cy="227" r="0.6"/>
	<circle class="st6" cx="563.6" cy="228.7" r="0.6"/>
	<circle class="st6" cx="560.2" cy="227" r="0.6"/>
	<circle class="st6" cx="561.4" cy="228.7" r="0.6"/>
	<circle class="st6" cx="557.9" cy="227" r="0.6"/>
	<circle class="st6" cx="559.1" cy="228.7" r="0.6"/>
	<path class="st6" d="M544.6,236c-1.4,0-2.6,1.1-2.6,2.6s1.1,2.6,2.6,2.6s2.6-1.1,2.6-2.6S546,236,544.6,236z M544.6,240
		c-0.8,0-1.4-0.6-1.4-1.4c0-0.8,0.6-1.4,1.4-1.4s1.4,0.6,1.4,1.4S545.4,240,544.6,240z"/>
	<path class="st6" d="M544.6,246.8c-1.4,0-2.6,1.1-2.6,2.6s1.1,2.6,2.6,2.6s2.6-1.1,2.6-2.6S546,246.8,544.6,246.8z M544.6,250.8
		c-0.8,0-1.4-0.6-1.4-1.4c0-0.8,0.6-1.4,1.4-1.4s1.4,0.6,1.4,1.4S545.4,250.8,544.6,250.8z"/>
	<path class="st6" d="M572.7,231.2v-6.7c0-1.4-1.2-2.6-2.6-2.6h-28.8c-1.4,0-2.6,1.2-2.6,2.6v6.7c0,0.8,0.4,1.6,1,2
		c-0.6,0.5-1,1.2-1,2v6.7c0,0.8,0.4,1.6,1,2c-0.6,0.5-1,1.2-1,2v6.7c0,1.4,1.2,2.6,2.6,2.6h15.8c1.5,0.3,3.2,0.4,4.8,0.4
		c4.9,0,10.1-1.3,10.7-3.7c0-0.1,0.1-0.2,0.1-0.3v-5.1v-0.2v-0.2v-4.7v-0.2V241v-4.9V236c0-0.1,0-0.2-0.1-0.2
		c-0.2-0.8-0.9-1.5-2-2.1C571.8,233.5,572.7,232.4,572.7,231.2z M539.8,241.9v-6.7c0-0.8,0.7-1.5,1.5-1.5h11.8c-1,0.6-1.7,1.2-1.9,2
		c0,0.1-0.1,0.2-0.1,0.2v0.2v4.9v0.2v0.2v1.8h-9.9C540.5,243.4,539.8,242.7,539.8,241.9z M552.6,238.5
		C552.7,238.5,552.7,238.5,552.6,238.5c0.2,0.1,0.3,0.2,0.4,0.2c0,0,0.1,0,0.1,0.1c0.1,0.1,0.3,0.1,0.4,0.2c0,0,0,0,0.1,0
		c0.1,0.1,0.3,0.1,0.4,0.2h0.1c0.2,0.1,0.3,0.1,0.5,0.2l0,0c0.2,0.1,0.3,0.1,0.5,0.2h0.1c0.2,0,0.3,0.1,0.5,0.1l0,0
		c0.2,0,0.4,0.1,0.6,0.1h0.1c0.2,0,0.3,0.1,0.5,0.1h0.1c0.2,0,0.4,0.1,0.6,0.1h0.1c0.2,0,0.3,0,0.5,0.1h0.1c0.2,0,0.4,0,0.6,0.1h0.1
		c0.2,0,0.3,0,0.5,0c0.1,0,0.1,0,0.2,0c0.2,0,0.4,0,0.6,0h0.1c0.2,0,0.4,0,0.6,0c0.1,0,0.1,0,0.2,0c0.2,0,0.4,0,0.6,0s0.4,0,0.6,0
		c0.1,0,0.1,0,0.2,0c0.2,0,0.4,0,0.6,0h0.1c0.2,0,0.4,0,0.6,0c0.1,0,0.1,0,0.2,0c0.2,0,0.3,0,0.5,0h0.1c0.2,0,0.4,0,0.6-0.1h0.1
		c0.2,0,0.3,0,0.5-0.1h0.1c0.2,0,0.4-0.1,0.6-0.1h0.1c0.2,0,0.3-0.1,0.5-0.1h0.1c0.2,0,0.4-0.1,0.6-0.1l0,0c0.2,0,0.3-0.1,0.5-0.1
		h0.1c0.2,0,0.3-0.1,0.5-0.2l0,0c0.2-0.1,0.3-0.1,0.5-0.2h0.1c0.1-0.1,0.3-0.1,0.4-0.2c0,0,0,0,0.1,0c0.1-0.1,0.3-0.1,0.4-0.2
		c0,0,0.1,0,0.1-0.1c0.1-0.1,0.2-0.1,0.3-0.2h0.1c0.1-0.1,0.2-0.2,0.3-0.2l0,0v2.8c0,0.1,0,0.1,0,0.2v0.1c0,0.1,0,0.1,0,0.2v0.1
		c0,0,0,0.1-0.1,0.1l-0.1,0.1c0,0.1-0.1,0.1-0.1,0.2c0,0,0,0-0.1,0.1c-1.2,1.2-4.7,2.2-9.2,2.2s-8-1-9.2-2.2c0,0,0,0-0.1-0.1
		s-0.1-0.1-0.1-0.2l-0.1-0.1c0,0,0-0.1-0.1-0.1c0-0.1,0-0.1,0-0.2c0-0.1,0-0.1,0-0.2v-0.1c0-0.1,0-0.1,0-0.2v-2.8l0,0
		C552.4,238.3,552.5,238.4,552.6,238.5z M571.5,246.8c0,0,0,0.1-0.1,0.1l-0.1,0.1c0,0.1-0.1,0.1-0.1,0.2c0,0,0,0-0.1,0.1
		c-1.2,1.2-4.7,2.2-9.2,2.2s-8-1-9.2-2.2c0,0,0,0-0.1-0.1s-0.1-0.1-0.1-0.2l-0.1-0.1c0,0,0-0.1-0.1-0.1c0-0.1,0-0.1,0-0.2
		c0-0.1,0-0.1,0-0.2v-0.1v-0.1v-0.1v-2.8v-0.1c0,0,0,0,0.1,0.1s0.1,0.1,0.2,0.2c0.1,0,0.1,0.1,0.2,0.1c0.1,0.1,0.2,0.1,0.3,0.2l0,0
		c1.2,0.6,2.8,1.1,4.6,1.4l0,0c0.6,0.1,1.2,0.2,1.8,0.2c0.1,0,0.3,0,0.4,0c0.1,0,0.3,0,0.4,0c0.2,0,0.3,0,0.5,0c0.1,0,0.2,0,0.3,0
		c0.3,0,0.6,0,0.8,0c0.3,0,0.6,0,0.8,0c0.1,0,0.2,0,0.3,0c0.2,0,0.3,0,0.5,0c0.1,0,0.3,0,0.4,0s0.3,0,0.4,0c0.6-0.1,1.2-0.1,1.8-0.2
		l0,0c2-0.3,3.7-0.8,4.9-1.6c0.1,0,0.1-0.1,0.2-0.1c0.1-0.1,0.2-0.1,0.2-0.2c0,0,0.1,0,0.1-0.1v2.8c0,0.1,0,0.1,0,0.2v0.1
		c0,0.1,0,0.1,0,0.2C571.5,246.7,571.5,246.8,571.5,246.8z M541.3,254.2c-0.8,0-1.5-0.7-1.5-1.5V246c0-0.8,0.7-1.5,1.5-1.5h9.9v1.7
		v0.2v0.2v5.1v0.6h0.2c0,0,0,0,0,0.1c0,0,0,0.1,0.1,0.1c0,0.1,0.1,0.2,0.2,0.2c0.1,0.1,0.1,0.2,0.2,0.2l0.1,0.1
		c0.2,0.2,0.5,0.4,0.8,0.6l0,0c0.2,0.1,0.5,0.3,0.7,0.4L541.3,254.2L541.3,254.2z M571.6,251.6C571.6,251.7,571.6,251.7,571.6,251.6
		c-0.2,1.5-4.2,3-9.6,3c-1.7,0-3.3-0.2-4.7-0.4l0,0c-2.8-0.5-4.4-1.4-4.8-2.2l0,0v-0.1c0-0.1-0.1-0.1-0.1-0.2v-3.3c0,0,0,0,0.1,0
		c0.1,0.1,0.1,0.1,0.2,0.2c0.1,0,0.1,0.1,0.2,0.1c0.1,0.1,0.2,0.1,0.3,0.2l0,0c1.2,0.6,2.8,1.1,4.6,1.4l0,0c0.6,0.1,1.2,0.2,1.8,0.2
		c0.1,0,0.3,0,0.4,0c0.1,0,0.3,0,0.4,0c0.2,0,0.3,0,0.5,0c0.1,0,0.2,0,0.3,0c0.3,0,0.6,0,0.8,0c0.3,0,0.6,0,0.8,0c0.1,0,0.2,0,0.3,0
		c0.2,0,0.3,0,0.5,0c0.1,0,0.3,0,0.4,0c0.1,0,0.3,0,0.4,0c0.6-0.1,1.2-0.1,1.8-0.2l0,0c2-0.3,3.7-0.8,4.9-1.6c0.1,0,0.1-0.1,0.2-0.1
		c0.1-0.1,0.2-0.1,0.2-0.2c0,0,0.1,0,0.1-0.1C571.6,248.4,571.6,251.6,571.6,251.6z M571.6,236.3c0,1.4-4.1,3-9.6,3s-9.6-1.6-9.6-3
		c0-0.1,0-0.1,0-0.2c0-0.1,0.1-0.1,0.1-0.2l0,0c0.2-0.3,0.6-0.7,1.2-1h0.1c0.1-0.1,0.2-0.1,0.3-0.2c0.1-0.1,0.3-0.1,0.4-0.2h0.1
		c0.7-0.3,1.5-0.5,2.3-0.7c0.3-0.1,0.6-0.1,0.9-0.2c0.1,0,0.2,0,0.2,0c2.5-0.4,5.5-0.4,8,0c0.1,0,0.2,0,0.2,0c0.3,0,0.6,0.1,0.9,0.2
		C569.8,234.3,571.6,235.3,571.6,236.3z M571.6,231.2c0,0.8-0.7,1.5-1.5,1.5h-2.6h-0.1c-0.4-0.1-0.8-0.2-1.1-0.2h-0.1
		c-1.3-0.2-2.8-0.3-4.2-0.3s-2.8,0.1-4.2,0.3h-0.1c-0.4,0.1-0.8,0.1-1.1,0.2h-0.1h-15.1c-0.8,0-1.5-0.7-1.5-1.5v-6.7
		c0-0.8,0.7-1.5,1.5-1.5h28.8c0.8,0,1.5,0.7,1.5,1.5v6.7H571.6z"/>
</g>
<g>
	<g>
		<path class="st3" d="M355.8,114.3v6.7c0.2,0,0.4-0.1,0.6,0l34.8,8.8c1.6,0.4,2.6,2.3,2.3,4.3c-0.3,1.8-1.5,3-2.9,3
			c-0.2,0-0.4,0-0.6-0.1l-34.2-8.6v4.1c0.2,0,0.3,0,0.5,0l34.8,7.1c1.6,0.3,2.7,2.2,2.4,4.2c-0.2,1.8-1.5,3.1-2.9,3.1
			c-0.2,0-0.3,0-0.5,0l-34.3-7.1v3.2c0.1,0,0.3-0.1,0.4,0l34.8,6.4c1.6,0.3,2.7,2.2,2.5,4.2c-0.2,1.8-1.5,3.2-2.9,3.2
			c-0.1,0-0.3,0-0.4,0l-34.4-6.3v3.7c0.1,0,0.2-0.1,0.3,0l34.8,5.2c1.6,0.2,2.7,2.1,2.6,4.1c-0.2,1.9-1.4,3.3-2.9,3.3
			c-0.1,0-0.2,0-0.3,0l-34.5-5.1l-0.1,75.4h38.9l0.1-112.7L355.8,114.3z M388.2,178.1c-1.3,0-2.4-1.4-2.4-3.1c0-1.7,1.1-3.1,2.4-3.1
			s2.4,1.4,2.4,3.1C390.7,176.8,389.6,178.1,388.2,178.1z"/>
		<path class="st3" d="M314.7,237.1l39-0.2l0.1-122.5L314.7,134v32.3V237.1z"/>
	</g>
</g>
<g class="st5">
	<path class="st3" d="M296.1,259.5h1.8v8.3h-1.8v-3.3h-3.3v3.3H291v-8.3h1.8v3.5h3.3L296.1,259.5L296.1,259.5z"/>
	<path class="st3" d="M303.5,261.1v6.7h-1.8v-6.7h-2.3v-1.6h6.5v1.6H303.5z"/>
	<path class="st3" d="M310.7,261.1v6.7h-1.8v-6.7h-2.3v-1.6h6.5v1.6H310.7z"/>
	<path class="st3" d="M320.1,260.2c0.6,0.5,0.9,1.3,0.9,2.3s-0.3,1.8-0.9,2.2c-0.6,0.5-1.5,0.7-2.7,0.7h-1.1v2.3h-1.8v-8.3h2.9
		C318.6,259.5,319.5,259.7,320.1,260.2z M318.8,263.5c0.2-0.2,0.3-0.6,0.3-1.1s-0.1-0.8-0.4-1s-0.7-0.3-1.3-0.3h-1.1v2.8h1.2
		C318.1,263.8,318.5,263.7,318.8,263.5z"/>
	<path class="st3" d="M329.8,258.2h1.7l-5,10.9h-1.7L329.8,258.2z"/>
	<path class="st3" d="M341.1,259.5h1.8v8.3h-1.8v-3.3h-3.3v3.3H336v-8.3h1.8v3.5h3.3L341.1,259.5L341.1,259.5z"/>
	<path class="st3" d="M348.5,261.1v6.7h-1.8v-6.7h-2.3v-1.6h6.5v1.6H348.5z"/>
	<path class="st3" d="M355.7,261.1v6.7h-1.8v-6.7h-2.3v-1.6h6.5v1.6H355.7z"/>
	<path class="st3" d="M365.1,260.2c0.6,0.5,0.9,1.3,0.9,2.3s-0.3,1.8-0.9,2.2c-0.6,0.5-1.5,0.7-2.7,0.7h-1.1v2.3h-1.8v-8.3h2.9
		C363.6,259.5,364.5,259.7,365.1,260.2z M363.8,263.5c0.2-0.2,0.3-0.6,0.3-1.1s-0.1-0.8-0.4-1s-0.7-0.3-1.3-0.3h-1.1v2.8h1.2
		C363.1,263.8,363.5,263.7,363.8,263.5z"/>
	<path class="st3" d="M369.4,261.1c-0.2,0.1-0.3,0.3-0.3,0.6s0.1,0.4,0.3,0.6c0.2,0.1,0.7,0.3,1.5,0.5s1.4,0.5,1.8,0.9
		s0.7,1,0.7,1.7s-0.3,1.3-0.8,1.8c-0.6,0.5-1.3,0.7-2.2,0.7c-1.3,0-2.5-0.5-3.5-1.5l1.1-1.4c0.9,0.8,1.7,1.2,2.5,1.2
		c0.3,0,0.6-0.1,0.8-0.2c0.2-0.1,0.3-0.3,0.3-0.6c0-0.2-0.1-0.4-0.3-0.6c-0.2-0.1-0.6-0.3-1.2-0.4c-1-0.2-1.7-0.5-2.1-0.9
		s-0.7-0.9-0.7-1.7c0-0.8,0.3-1.4,0.8-1.8c0.6-0.4,1.3-0.6,2.1-0.6c0.6,0,1.1,0.1,1.7,0.3c0.6,0.2,1,0.5,1.4,0.8l-0.9,1.4
		c-0.7-0.5-1.5-0.8-2.2-0.8C369.8,260.9,369.5,261,369.4,261.1z"/>
	<path class="st3" d="M383.8,260.2c0.6,0.5,0.9,1.3,0.9,2.3s-0.3,1.8-0.9,2.2c-0.6,0.5-1.5,0.7-2.7,0.7H380v2.3h-1.8v-8.3h2.9
		C382.3,259.5,383.2,259.7,383.8,260.2z M382.5,263.5c0.2-0.2,0.3-0.6,0.3-1.1s-0.1-0.8-0.4-1s-0.7-0.3-1.3-0.3H380v2.8h1.2
		C381.8,263.8,382.2,263.7,382.5,263.5z"/>
	<path class="st3" d="M392.9,262.2c0,1.3-0.5,2.2-1.6,2.6l2.1,3h-2.3l-1.8-2.6H388v2.6h-1.8v-8.3h3.1c1.3,0,2.2,0.2,2.8,0.7
		C392.6,260.6,392.9,261.3,392.9,262.2z M390.6,263.2c0.2-0.2,0.3-0.5,0.3-1s-0.1-0.8-0.4-0.9c-0.2-0.2-0.7-0.2-1.2-0.2H388v2.5h1.4
		C390,263.5,390.4,263.4,390.6,263.2z"/>
	<path class="st3" d="M401.6,266.6c-0.8,0.8-1.9,1.2-3.1,1.2s-2.3-0.4-3.1-1.2c-0.8-0.8-1.3-1.8-1.3-3.1s0.4-2.2,1.3-3.1
		c0.8-0.8,1.9-1.2,3.1-1.2s2.3,0.4,3.1,1.2c0.8,0.8,1.3,1.8,1.3,3.1S402.5,265.8,401.6,266.6z M401,263.6c0-0.7-0.2-1.4-0.7-1.9
		s-1.1-0.8-1.7-0.8s-1.3,0.3-1.7,0.8s-0.7,1.2-0.7,1.9s0.2,1.4,0.7,1.9s1.1,0.8,1.7,0.8s1.3-0.3,1.7-0.8
		C400.8,264.9,401,264.3,401,263.6z"/>
	<path class="st3" d="M408.8,259.5h2.2l-2.6,4l2.8,4.3H409l-1.8-2.7l-1.8,2.7h-2.2l2.8-4.2l-2.6-4h2.2l1.6,2.5L408.8,259.5z"/>
	<path class="st3" d="M415.9,267.8h-1.8v-3.3l-2.9-5h2l1.8,3.1l1.8-3.1h2l-2.9,5V267.8z"/>
</g>
<g class="st5">
	<path class="st3" d="M306.3,277.7h1.9v2.9c-0.8,0.9-2,1.4-3.4,1.4c-1.2,0-2.2-0.4-3.1-1.2c-0.8-0.8-1.2-1.8-1.2-3.1
		c0-1.2,0.4-2.3,1.3-3.1c0.8-0.8,1.9-1.2,3-1.2s2.2,0.4,3.1,1.2l-1,1.4c-0.4-0.3-0.7-0.5-1-0.7c-0.3-0.1-0.6-0.2-1-0.2
		c-0.7,0-1.3,0.2-1.8,0.7s-0.7,1.1-0.7,1.9s0.2,1.4,0.7,1.9s1,0.7,1.7,0.7c0.6,0,1.2-0.1,1.6-0.4v-2.2H306.3z"/>
	<path class="st3" d="M315.6,282l-0.8-1.8h-3.5l-0.8,1.8h-2l3.6-8.3h1.8l3.6,8.3H315.6z M313.1,276.1l-1,2.4h2.1L313.1,276.1z"/>
	<path class="st3" d="M321.4,275.3v6.7h-1.8v-6.7h-2.3v-1.6h6.5v1.6H321.4z"/>
	<path class="st3" d="M331.1,273.7v1.6H327v1.7h3.7v1.6H327v1.7h4.3v1.6h-6.1v-8.3L331.1,273.7L331.1,273.7z"/>
	<path class="st3" d="M335.5,278.4l1.5-4.8h1.9l1.5,4.8l1.6-4.8h2l-2.9,8.3h-1.4l-1.8-5.8l-1.8,5.8h-1.4l-2.9-8.3h2L335.5,278.4z"/>
	<path class="st3" d="M350.4,282l-0.8-1.8h-3.5l-0.8,1.8h-2l3.6-8.3h1.8l3.6,8.3H350.4z M347.9,276.1l-1,2.4h2.1L347.9,276.1z"/>
	<path class="st3" d="M356.3,282h-1.8v-3.3l-2.9-5h2l1.8,3.1l1.8-3.1h2l-2.9,5V282z"/>
	<path class="st3" d="M365.1,275.3c-0.2,0.1-0.3,0.3-0.3,0.6s0.1,0.4,0.3,0.6c0.2,0.1,0.7,0.3,1.5,0.5s1.4,0.5,1.8,0.9
		s0.7,1,0.7,1.7s-0.3,1.3-0.8,1.8c-0.6,0.5-1.3,0.7-2.2,0.7c-1.3,0-2.5-0.5-3.5-1.5l1.1-1.4c0.9,0.8,1.7,1.2,2.5,1.2
		c0.3,0,0.6-0.1,0.8-0.2c0.2-0.1,0.3-0.3,0.3-0.6c0-0.2-0.1-0.4-0.3-0.6c-0.2-0.1-0.6-0.3-1.2-0.4c-1-0.2-1.7-0.5-2.1-0.9
		s-0.7-0.9-0.7-1.7c0-0.8,0.3-1.4,0.8-1.8c0.6-0.4,1.3-0.6,2.1-0.6c0.6,0,1.1,0.1,1.7,0.3c0.6,0.2,1,0.5,1.4,0.8l-0.9,1.4
		c-0.7-0.5-1.5-0.8-2.2-0.8C365.6,275.1,365.3,275.2,365.1,275.3z"/>
	<path class="st3" d="M376.7,273.7v1.6h-4.1v1.7h3.7v1.6h-3.7v1.7h4.3v1.6h-6.1v-8.3L376.7,273.7L376.7,273.7z"/>
	<path class="st3" d="M385.2,276.4c0,1.3-0.5,2.2-1.6,2.6l2.1,3h-2.3l-1.8-2.6h-1.3v2.6h-1.8v-8.3h3.1c1.3,0,2.2,0.2,2.8,0.7
		C385,274.8,385.2,275.5,385.2,276.4z M383,277.4c0.2-0.2,0.3-0.5,0.3-1s-0.1-0.8-0.4-0.9c-0.2-0.2-0.7-0.2-1.2-0.2h-1.4v2.5h1.4
		C382.3,277.7,382.8,277.6,383,277.4z"/>
	<path class="st3" d="M390,278.9l2.1-5.3h2l-3.3,8.3h-1.6l-3.3-8.3h2L390,278.9z"/>
	<path class="st3" d="M401.1,273.7v1.6H397v1.7h3.7v1.6H397v1.7h4.3v1.6h-6.1v-8.3L401.1,273.7L401.1,273.7z"/>
	<path class="st3" d="M409.6,276.4c0,1.3-0.5,2.2-1.6,2.6l2.1,3h-2.3l-1.8-2.6h-1.3v2.6h-1.8v-8.3h3.1c1.3,0,2.2,0.2,2.8,0.7
		C409.3,274.8,409.6,275.5,409.6,276.4z M407.4,277.4c0.2-0.2,0.3-0.5,0.3-1s-0.1-0.8-0.4-0.9c-0.2-0.2-0.7-0.2-1.2-0.2h-1.4v2.5
		h1.4C406.7,277.7,407.1,277.6,407.4,277.4z"/>
</g>
<g class="st5">
	<path class="st3" d="M56.7,262.6c-0.2,0.1-0.3,0.3-0.3,0.6s0.1,0.4,0.3,0.6c0.2,0.1,0.7,0.3,1.5,0.5s1.4,0.5,1.8,0.9
		c0.4,0.4,0.7,1,0.7,1.7s-0.3,1.3-0.8,1.8c-0.6,0.5-1.3,0.7-2.2,0.7c-1.3,0-2.5-0.5-3.5-1.5l1.1-1.4c0.9,0.8,1.7,1.2,2.5,1.2
		c0.3,0,0.6-0.1,0.8-0.2s0.3-0.3,0.3-0.6c0-0.2-0.1-0.4-0.3-0.6c-0.2-0.1-0.6-0.3-1.2-0.4c-1-0.2-1.7-0.5-2.1-0.9
		c-0.4-0.4-0.7-0.9-0.7-1.7c0-0.8,0.3-1.4,0.8-1.8c0.6-0.4,1.3-0.6,2.1-0.6c0.6,0,1.1,0.1,1.7,0.3c0.6,0.2,1,0.5,1.4,0.8l-0.9,1.4
		c-0.7-0.5-1.5-0.8-2.2-0.8C57.1,262.4,56.9,262.5,56.7,262.6z"/>
	<path class="st3" d="M66.1,267.6c0.9,0,1.7-0.4,2.2-1.1l1.2,1.2c-0.9,1.1-2,1.6-3.3,1.6s-2.3-0.4-3.2-1.2c-0.8-0.8-1.2-1.8-1.2-3.1
		c0-1.2,0.4-2.3,1.3-3.1c0.8-0.8,1.9-1.2,3.1-1.2c1.4,0,2.5,0.5,3.4,1.6l-1.1,1.3c-0.6-0.7-1.3-1.1-2.2-1.1c-0.7,0-1.3,0.2-1.8,0.7
		s-0.7,1.1-0.7,1.8s0.2,1.4,0.7,1.9C64.9,267.4,65.5,267.6,66.1,267.6z"/>
	<path class="st3" d="M77.7,263.7c0,1.3-0.5,2.2-1.6,2.6l2.1,3H76l-1.8-2.6h-1.3v2.6H71V261h3.1c1.3,0,2.2,0.2,2.8,0.7
		C77.4,262.1,77.7,262.8,77.7,263.7z M75.5,264.7c0.2-0.2,0.3-0.5,0.3-1s-0.1-0.8-0.4-0.9c-0.2-0.2-0.7-0.2-1.2-0.2h-1.4v2.5h1.4
		C74.8,265,75.3,264.9,75.5,264.7z"/>
	<path class="st3" d="M85.5,269.3l-0.8-1.8h-3.5l-0.8,1.8h-2L82,261h1.8l3.6,8.3H85.5z M83,263.4l-1,2.4h2L83,263.4z"/>
	<path class="st3" d="M94.2,261.7c0.6,0.5,0.9,1.3,0.9,2.3s-0.3,1.8-0.9,2.2c-0.6,0.5-1.5,0.7-2.7,0.7h-1.1v2.3h-1.8V261h2.9
		C92.6,261,93.6,261.2,94.2,261.7z M92.8,265c0.2-0.2,0.3-0.6,0.3-1.1s-0.1-0.8-0.4-1s-0.7-0.3-1.3-0.3h-1.1v2.8h1.2
		C92.2,265.3,92.6,265.2,92.8,265z"/>
	<path class="st3" d="M102.4,261v1.6h-4.1v1.7h3.7v1.6h-3.7v1.7h4.3v1.6h-6.1V261H102.4z"/>
	<path class="st3" d="M110.9,263.7c0,1.3-0.5,2.2-1.6,2.6l2.1,3h-2.3l-1.8-2.6H106v2.6h-1.8V261h3.1c1.3,0,2.2,0.2,2.8,0.7
		C110.7,262.1,110.9,262.8,110.9,263.7z M108.7,264.7c0.2-0.2,0.3-0.5,0.3-1s-0.1-0.8-0.4-0.9c-0.2-0.2-0.7-0.2-1.2-0.2H106v2.5h1.4
		C108,265,108.5,264.9,108.7,264.7z"/>
	<path class="st3" d="M120.2,259.7h1.7l-5,10.9h-1.7L120.2,259.7z"/>
	<path class="st3" d="M128.3,262.6c-0.2,0.1-0.3,0.3-0.3,0.6s0.1,0.4,0.3,0.6c0.2,0.1,0.7,0.3,1.5,0.5s1.4,0.5,1.8,0.9
		c0.4,0.4,0.7,1,0.7,1.7s-0.3,1.3-0.8,1.8c-0.6,0.5-1.3,0.7-2.2,0.7c-1.3,0-2.5-0.5-3.5-1.5l1.1-1.4c0.9,0.8,1.7,1.2,2.5,1.2
		c0.3,0,0.6-0.1,0.8-0.2s0.3-0.3,0.3-0.6c0-0.2-0.1-0.4-0.3-0.6c-0.2-0.1-0.6-0.3-1.2-0.4c-1-0.2-1.7-0.5-2.1-0.9s-0.7-0.9-0.7-1.7
		c0-0.8,0.3-1.4,0.8-1.8c0.6-0.4,1.3-0.6,2.1-0.6c0.6,0,1.1,0.1,1.7,0.3c0.6,0.2,1,0.5,1.4,0.8l-0.9,1.4c-0.7-0.5-1.5-0.8-2.2-0.8
		C128.7,262.4,128.5,262.5,128.3,262.6z"/>
	<path class="st3" d="M139.9,261v1.6h-4.1v1.7h3.7v1.6h-3.7v1.7h4.3v1.6H134V261H139.9z"/>
	<path class="st3" d="M148.5,268.1c-0.8,0.8-1.9,1.2-3.1,1.2c-1.2,0-2.3-0.4-3.1-1.2c-0.8-0.8-1.3-1.8-1.3-3.1s0.4-2.2,1.3-3.1
		c0.8-0.8,1.9-1.2,3.1-1.2c1.2,0,2.3,0.4,3.1,1.2c0.8,0.8,1.3,1.8,1.3,3.1S149.3,267.3,148.5,268.1z M147.9,265.1
		c0-0.7-0.2-1.4-0.7-1.9s-1.1-0.8-1.7-0.8s-1.3,0.3-1.7,0.8s-0.7,1.2-0.7,1.9s0.2,1.4,0.7,1.9s1.1,0.8,1.7,0.8s1.3-0.3,1.7-0.8
		C147.6,266.4,147.9,265.8,147.9,265.1z"/>
	<path class="st3" d="M160.4,269.3l-0.8-1.8h-3.5l-0.8,1.8h-2l3.6-8.3h1.8l3.6,8.3H160.4z M157.9,263.4l-1,2.4h2.1L157.9,263.4z"/>
	<path class="st3" d="M169,261.7c0.6,0.5,0.9,1.3,0.9,2.3s-0.3,1.8-0.9,2.2c-0.6,0.5-1.5,0.7-2.7,0.7h-1.1v2.3h-1.8V261h2.9
		C167.5,261,168.4,261.2,169,261.7z M167.6,265c0.2-0.2,0.3-0.6,0.3-1.1s-0.1-0.8-0.4-1c-0.3-0.2-0.7-0.3-1.3-0.3h-1.1v2.8h1.2
		C167,265.3,167.4,265.2,167.6,265z"/>
	<path class="st3" d="M177,261.7c0.6,0.5,0.9,1.3,0.9,2.3s-0.3,1.8-0.9,2.2c-0.6,0.5-1.5,0.7-2.7,0.7h-1.1v2.3h-1.8V261h2.9
		C175.5,261,176.4,261.2,177,261.7z M175.7,265c0.2-0.2,0.3-0.6,0.3-1.1s-0.1-0.8-0.4-1c-0.3-0.2-0.7-0.3-1.3-0.3h-1.1v2.8h1.2
		C175,265.3,175.4,265.2,175.7,265z"/>
</g>
<g class="st5">
	<path class="st3" d="M834,265.7l1.5-4.8h1.9l1.5,4.8l1.6-4.8h2l-2.9,8.3h-1.4l-1.8-5.8l-1.8,5.8h-1.4l-2.9-8.3h2L834,265.7z"/>
	<path class="st3" d="M849.4,261v1.6h-4.1v1.7h3.7v1.6h-3.7v1.7h4.3v1.6h-6.1V261H849.4z"/>
	<path class="st3" d="M854.8,269.3h-3.6V261h3.2c0.6,0,1,0.1,1.5,0.2c0.4,0.1,0.7,0.3,0.9,0.5c0.4,0.4,0.6,0.9,0.6,1.4
		c0,0.6-0.2,1.1-0.6,1.4c-0.1,0.1-0.2,0.2-0.3,0.2s-0.2,0.1-0.3,0.1c0.5,0.1,0.9,0.3,1.2,0.7c0.3,0.4,0.5,0.8,0.5,1.3
		c0,0.6-0.2,1.1-0.6,1.5C856.8,269,856,269.3,854.8,269.3z M853.1,264.3h0.9c0.5,0,0.9-0.1,1.1-0.2c0.2-0.1,0.4-0.3,0.4-0.7
		s-0.1-0.6-0.3-0.7s-0.6-0.2-1.2-0.2h-0.9V264.3z M853.1,267.7h1.3c0.5,0,0.9-0.1,1.2-0.2s0.4-0.4,0.4-0.8s-0.1-0.6-0.4-0.8
		c-0.3-0.1-0.7-0.2-1.3-0.2h-1.1v2H853.1z"/>
	<path class="st3" d="M861.3,262.6c-0.2,0.1-0.3,0.3-0.3,0.6s0.1,0.4,0.3,0.6c0.2,0.1,0.7,0.3,1.5,0.5s1.4,0.5,1.8,0.9
		s0.7,1,0.7,1.7s-0.3,1.3-0.8,1.8s-1.3,0.7-2.2,0.7c-1.3,0-2.5-0.5-3.5-1.5l1.1-1.4c0.9,0.8,1.7,1.2,2.5,1.2c0.3,0,0.6-0.1,0.8-0.2
		s0.3-0.3,0.3-0.6c0-0.2-0.1-0.4-0.3-0.6c-0.2-0.1-0.6-0.3-1.2-0.4c-1-0.2-1.7-0.5-2.1-0.9s-0.7-0.9-0.7-1.7c0-0.8,0.3-1.4,0.8-1.8
		s1.3-0.6,2.1-0.6c0.6,0,1.1,0.1,1.7,0.3c0.6,0.2,1,0.5,1.4,0.8l-0.9,1.4c-0.7-0.5-1.5-0.8-2.2-0.8
		C861.7,262.4,861.5,262.5,861.3,262.6z"/>
	<path class="st3" d="M866.9,261h1.8v8.3h-1.8V261z"/>
	<path class="st3" d="M874.3,262.6v6.7h-1.8v-6.7h-2.3V261h6.5v1.6H874.3z"/>
	<path class="st3" d="M884,261v1.6h-4.1v1.7h3.7v1.6h-3.7v1.7h4.3v1.6H878V261H884z"/>
</g>
<path class="st7" d="M170,145.6V215c0,2.4-2,4.4-4.4,4.4h-30.5c-2.4,0-4.4-2-4.4-4.4v-69.3c0-2.4,2-4.4,4.4-4.4h30.5
	C168,141.2,170,143.2,170,145.6z"/>
<g>
	<rect x="134.7" y="146.9" class="st6" width="31.4" height="7.3"/>
	<rect x="134.7" y="159.1" class="st6" width="31.4" height="7.3"/>
	<rect x="134.7" y="171.2" class="st6" width="31.4" height="7.3"/>
</g>
<circle class="st6" cx="150.3" cy="203.7" r="4.2"/>
<path class="st8" d="M130.7,159.1v51.2h6.6c4.2,0,7.7-3.5,7.7-7.7v-43.5H130.7z"/>
<g>
	<rect x="134.7" y="159.1" class="st9" width="10.4" height="7.3"/>
	<rect x="134.7" y="171.2" class="st9" width="10.4" height="7.3"/>
</g>
<rect x="87.6" y="201.5" class="st10" width="30.5" height="12.8"/>
<rect x="81.4" y="214.1" class="st7" width="43.1" height="5.3"/>
<rect x="87.6" y="201.5" class="st9" width="30.5" height="8.8"/>
<path class="st7" d="M137.3,206.8H68.4c-2.4,0-4.4-2-4.4-4.4V156c0-2.4,2-4.4,4.4-4.4h68.9c2.4,0,4.4,2,4.4,4.4v46.4
	C141.7,204.8,139.7,206.8,137.3,206.8z"/>
<rect x="69.5" y="157.3" class="st3" width="66.7" height="44.2"/>
<linearGradient id="SVGID_1_" gradientUnits="userSpaceOnUse" x1="827.5189" y1="-175.9829" x2="827.5189" y2="-292.4747" gradientTransform="matrix(1.0667 0 0 1.0667 -25.8144 441.4595)">
	<stop  offset="0" style="stop-color:#FFFFFF"/>
	<stop  offset="1" style="stop-color:#E8EFEE"/>
</linearGradient>
<circle class="st11" cx="856.9" cy="183.1" r="49"/>
<linearGradient id="SVGID_2_" gradientUnits="userSpaceOnUse" x1="827.5189" y1="-282.1722" x2="827.5189" y2="-197.7619" gradientTransform="matrix(1.0667 0 0 1.0667 -25.8144 441.4595)">
	<stop  offset="0" style="stop-color:#FFFFFF"/>
	<stop  offset="1" style="stop-color:#E8EFEE"/>
</linearGradient>
<circle class="st12" cx="856.9" cy="183.1" r="47.7"/>
<radialGradient id="SVGID_3_" cx="823.652" cy="-247.9165" r="53.3961" gradientTransform="matrix(1.0667 0 0 1.0667 -25.8144 441.4595)" gradientUnits="userSpaceOnUse">
	<stop  offset="1.000000e-04" style="stop-color:#FFFFFF;stop-opacity:0"/>
	<stop  offset="0.482" style="stop-color:#FDFDFD;stop-opacity:0.482"/>
	<stop  offset="0.656" style="stop-color:#F6F7F7;stop-opacity:0.655"/>
	<stop  offset="0.779" style="stop-color:#EBEDEC;stop-opacity:0.779"/>
	<stop  offset="0.879" style="stop-color:#DADDDD;stop-opacity:0.879"/>
	<stop  offset="0.964" style="stop-color:#C4CAC9;stop-opacity:0.964"/>
	<stop  offset="1" style="stop-color:#B8BFBE"/>
</radialGradient>
<path class="st13" d="M873.7,138.5c2,5.2,3,10.9,3,16.7c0,26.3-21.3,47.7-47.7,47.7c-5.9,0-11.5-1.1-16.7-3
	c6.8,18.1,24.2,30.9,44.6,30.9c26.3,0,47.7-21.3,47.7-47.7C904.6,162.7,891.7,145.3,873.7,138.5z"/>
<g>
	
		<radialGradient id="SVGID_4_" cx="811.5126" cy="-262.065" r="58.7231" gradientTransform="matrix(1.0667 0 0 1.0667 -25.8144 441.4595)" gradientUnits="userSpaceOnUse">
		<stop  offset="0" style="stop-color:#00A6F9"/>
		<stop  offset="0.253" style="stop-color:#00A0F7"/>
		<stop  offset="0.575" style="stop-color:#0091F0"/>
		<stop  offset="0.932" style="stop-color:#0077E4"/>
		<stop  offset="1" style="stop-color:#0071E2"/>
	</radialGradient>
	<path class="st14" d="M838.5,156.4c0.7-2.2,1.5-4.3,2.3-6.3c1.7-3.9,3.7-7.1,5.9-9.5c-7.9,1.9-14.9,5.9-20.5,11.4
		C829.8,153.9,834,155.3,838.5,156.4z"/>
	
		<radialGradient id="SVGID_5_" cx="811.5126" cy="-262.065" r="58.7231" gradientTransform="matrix(1.0667 0 0 1.0667 -25.8144 441.4595)" gradientUnits="userSpaceOnUse">
		<stop  offset="0" style="stop-color:#00A6F9"/>
		<stop  offset="0.253" style="stop-color:#00A0F7"/>
		<stop  offset="0.575" style="stop-color:#0091F0"/>
		<stop  offset="0.932" style="stop-color:#0077E4"/>
		<stop  offset="1" style="stop-color:#0071E2"/>
	</radialGradient>
	<path class="st15" d="M887.6,152c-2,1-4.1,1.9-6.4,2.7c-1.9,0.7-3.9,1.2-5.9,1.7c-0.7-2.2-1.5-4.3-2.3-6.3
		c-1.7-3.9-3.7-7.1-5.9-9.5c0,0,0,0,0.1,0C875.1,142.5,882.1,146.6,887.6,152z"/>
	
		<radialGradient id="SVGID_6_" cx="811.5126" cy="-262.065" r="58.7231" gradientTransform="matrix(1.0667 0 0 1.0667 -25.8144 441.4595)" gradientUnits="userSpaceOnUse">
		<stop  offset="0" style="stop-color:#00A6F9"/>
		<stop  offset="0.253" style="stop-color:#00A0F7"/>
		<stop  offset="0.575" style="stop-color:#0091F0"/>
		<stop  offset="0.932" style="stop-color:#0077E4"/>
		<stop  offset="1" style="stop-color:#0071E2"/>
	</radialGradient>
	<path class="st16" d="M874.5,185.4h-35.2c0.1,6.8,1,13.3,2.4,19.2c4.8-0.9,10-1.3,15.2-1.3s10.4,0.4,15.2,1.3
		C873.5,198.7,874.3,192.2,874.5,185.4z"/>
	
		<radialGradient id="SVGID_7_" cx="811.5126" cy="-262.065" r="58.7231" gradientTransform="matrix(1.0667 0 0 1.0667 -25.8144 441.4595)" gradientUnits="userSpaceOnUse">
		<stop  offset="0" style="stop-color:#00A6F9"/>
		<stop  offset="0.253" style="stop-color:#00A0F7"/>
		<stop  offset="0.575" style="stop-color:#0091F0"/>
		<stop  offset="0.932" style="stop-color:#0077E4"/>
		<stop  offset="1" style="stop-color:#0071E2"/>
	</radialGradient>
	<path class="st17" d="M872.1,161.7c-4.8,0.9-10,1.3-15.2,1.3s-10.4-0.4-15.2-1.3c-1.4,5.8-2.2,12.3-2.4,19.2h35.2
		C874.3,174,873.5,167.5,872.1,161.7z"/>
	
		<radialGradient id="SVGID_8_" cx="811.5126" cy="-262.065" r="58.7231" gradientTransform="matrix(1.0667 0 0 1.0667 -25.8144 441.4595)" gradientUnits="userSpaceOnUse">
		<stop  offset="0" style="stop-color:#00A6F9"/>
		<stop  offset="0.253" style="stop-color:#00A0F7"/>
		<stop  offset="0.575" style="stop-color:#0091F0"/>
		<stop  offset="0.932" style="stop-color:#0077E4"/>
		<stop  offset="1" style="stop-color:#0071E2"/>
	</radialGradient>
	<path class="st18" d="M842.9,208.9c0.6,1.9,1.3,3.7,2,5.4c3.3,7.6,7.7,11.9,12,11.9s8.7-4.4,12-11.9c0.7-1.7,1.4-3.5,2-5.4
		c-4.4-0.8-9.2-1.2-14-1.2C852.1,207.8,847.4,208.2,842.9,208.9z"/>
	
		<radialGradient id="SVGID_9_" cx="811.5126" cy="-262.065" r="58.7231" gradientTransform="matrix(1.0667 0 0 1.0667 -25.8144 441.4595)" gradientUnits="userSpaceOnUse">
		<stop  offset="0" style="stop-color:#00A6F9"/>
		<stop  offset="0.253" style="stop-color:#00A0F7"/>
		<stop  offset="0.575" style="stop-color:#0091F0"/>
		<stop  offset="0.932" style="stop-color:#0077E4"/>
		<stop  offset="1" style="stop-color:#0071E2"/>
	</radialGradient>
	<path class="st19" d="M870.9,157.3c-0.6-1.9-1.3-3.7-2-5.4c-3.3-7.6-7.7-11.9-12-11.9s-8.7,4.4-12,11.9c-0.7,1.7-1.4,3.5-2,5.4
		c4.4,0.8,9.2,1.2,14,1.2S866.4,158.1,870.9,157.3z"/>
	
		<radialGradient id="SVGID_10_" cx="811.5126" cy="-262.065" r="58.7231" gradientTransform="matrix(1.0667 0 0 1.0667 -25.8144 441.4595)" gradientUnits="userSpaceOnUse">
		<stop  offset="0" style="stop-color:#00A6F9"/>
		<stop  offset="0.253" style="stop-color:#00A0F7"/>
		<stop  offset="0.575" style="stop-color:#0091F0"/>
		<stop  offset="0.932" style="stop-color:#0077E4"/>
		<stop  offset="1" style="stop-color:#0071E2"/>
	</radialGradient>
	<path class="st20" d="M837.3,160.8c-0.7,2.8-1.2,5.7-1.6,8.7c-0.5,3.7-0.8,7.5-0.9,11.4h-21.5c0.5-9.2,3.8-17.7,9.2-24.6
		c0.2-0.3,0.4-0.5,0.6-0.8c0.2,0.1,0.5,0.3,0.7,0.4C827.7,158,832.3,159.6,837.3,160.8z"/>
	
		<radialGradient id="SVGID_11_" cx="811.5126" cy="-262.065" r="58.7231" gradientTransform="matrix(1.0667 0 0 1.0667 -25.8144 441.4595)" gradientUnits="userSpaceOnUse">
		<stop  offset="0" style="stop-color:#00A6F9"/>
		<stop  offset="0.253" style="stop-color:#00A0F7"/>
		<stop  offset="0.575" style="stop-color:#0091F0"/>
		<stop  offset="0.932" style="stop-color:#0077E4"/>
		<stop  offset="1" style="stop-color:#0071E2"/>
	</radialGradient>
	<path class="st21" d="M875.4,209.8c-0.7,2.2-1.5,4.3-2.3,6.3c-1.7,3.9-3.7,7.1-5.9,9.5c7.9-1.9,14.9-5.9,20.5-11.4
		C884,212.4,879.9,210.9,875.4,209.8z"/>
	
		<radialGradient id="SVGID_12_" cx="811.5126" cy="-262.065" r="58.7231" gradientTransform="matrix(1.0667 0 0 1.0667 -25.8144 441.4595)" gradientUnits="userSpaceOnUse">
		<stop  offset="0" style="stop-color:#00A6F9"/>
		<stop  offset="0.253" style="stop-color:#00A0F7"/>
		<stop  offset="0.575" style="stop-color:#0091F0"/>
		<stop  offset="0.932" style="stop-color:#0077E4"/>
		<stop  offset="1" style="stop-color:#0071E2"/>
	</radialGradient>
	<path class="st22" d="M890,155.9c-4,2.1-8.5,3.7-13.5,4.9c1.5,6.1,2.3,13,2.5,20.1h21.5c-0.5-9.6-4.1-18.4-9.8-25.3
		C890.5,155.6,890.3,155.8,890,155.9z"/>
	
		<radialGradient id="SVGID_13_" cx="811.5126" cy="-262.065" r="58.7231" gradientTransform="matrix(1.0667 0 0 1.0667 -25.8144 441.4595)" gradientUnits="userSpaceOnUse">
		<stop  offset="0" style="stop-color:#00A6F9"/>
		<stop  offset="0.253" style="stop-color:#00A0F7"/>
		<stop  offset="0.575" style="stop-color:#0091F0"/>
		<stop  offset="0.932" style="stop-color:#0077E4"/>
		<stop  offset="1" style="stop-color:#0071E2"/>
	</radialGradient>
	<path class="st23" d="M879,185.4c-0.1,7.1-1,13.9-2.5,20.1c4.9,1.2,9.5,2.8,13.5,4.9c0.2,0.1,0.5,0.3,0.7,0.4
		c5.7-7,9.3-15.8,9.8-25.3L879,185.4L879,185.4L879,185.4z"/>
	
		<radialGradient id="SVGID_14_" cx="811.5126" cy="-262.065" r="58.7231" gradientTransform="matrix(1.0667 0 0 1.0667 -25.8144 441.4595)" gradientUnits="userSpaceOnUse">
		<stop  offset="0" style="stop-color:#00A6F9"/>
		<stop  offset="0.253" style="stop-color:#00A0F7"/>
		<stop  offset="0.575" style="stop-color:#0091F0"/>
		<stop  offset="0.932" style="stop-color:#0077E4"/>
		<stop  offset="1" style="stop-color:#0071E2"/>
	</radialGradient>
	<path class="st24" d="M837.3,205.5c-2.1,0.5-4.2,1.1-6.1,1.8c-2.6,0.9-5.1,1.9-7.4,3.1c-0.3,0.1-0.5,0.3-0.7,0.4
		c-4.8-5.9-8.1-13.1-9.3-20.9c-0.2-1.4-0.4-2.9-0.5-4.4h21.5C834.9,192.5,835.8,199.3,837.3,205.5z"/>
	
		<radialGradient id="SVGID_15_" cx="811.5126" cy="-262.065" r="58.7231" gradientTransform="matrix(1.0667 0 0 1.0667 -25.8144 441.4595)" gradientUnits="userSpaceOnUse">
		<stop  offset="0" style="stop-color:#00A6F9"/>
		<stop  offset="0.253" style="stop-color:#00A0F7"/>
		<stop  offset="0.575" style="stop-color:#0091F0"/>
		<stop  offset="0.932" style="stop-color:#0077E4"/>
		<stop  offset="1" style="stop-color:#0071E2"/>
	</radialGradient>
	<path class="st25" d="M840.8,216.1c-0.9-2-1.6-4.1-2.3-6.3c-4.5,1.1-8.6,2.5-12.3,4.4c5.6,5.5,12.6,9.5,20.5,11.4
		C844.5,223.2,842.5,220,840.8,216.1z"/>
</g>
<linearGradient id="SVGID_16_" gradientUnits="userSpaceOnUse" x1="812.9426" y1="-254.4839" x2="787.5032" y2="-279.9233" gradientTransform="matrix(1.0667 0 0 1.0667 -25.8144 441.4595)">
	<stop  offset="1.000000e-04" style="stop-color:#008BF2;stop-opacity:0"/>
	<stop  offset="1" style="stop-color:#0046E2"/>
</linearGradient>
<path class="st26" d="M837.3,160.8c-0.7,2.8-1.2,5.7-1.6,8.7l-13.2-13.2c0.2-0.3,0.4-0.5,0.6-0.8c0.2,0.1,0.5,0.3,0.7,0.4
	C827.7,158,832.3,159.6,837.3,160.8z"/>
<linearGradient id="SVGID_17_" gradientUnits="userSpaceOnUse" x1="808.2001" y1="-226.6491" x2="785.6561" y2="-249.1937" gradientTransform="matrix(1.0667 0 0 1.0667 -25.8144 441.4595)">
	<stop  offset="1.000000e-04" style="stop-color:#008BF2;stop-opacity:0"/>
	<stop  offset="1" style="stop-color:#0046E2"/>
</linearGradient>
<path class="st27" d="M837.3,205.5c-2.1,0.5-4.2,1.1-6.1,1.8l-17.4-17.4c-0.2-1.4-0.4-2.9-0.5-4.4h21.5
	C834.9,192.5,835.8,199.3,837.3,205.5z"/>
<linearGradient id="SVGID_18_" gradientUnits="userSpaceOnUse" x1="850.2485" y1="-265.4582" x2="834.8502" y2="-280.8558" gradientTransform="matrix(1.0667 0 0 1.0667 -25.8144 441.4595)">
	<stop  offset="1.000000e-04" style="stop-color:#008BF2;stop-opacity:0"/>
	<stop  offset="1" style="stop-color:#0046E2"/>
</linearGradient>
<path class="st28" d="M881.3,154.7c-1.9,0.7-3.9,1.2-5.9,1.7c-0.7-2.2-1.5-4.3-2.3-6.3c-1.7-3.9-3.7-7.1-5.9-9.5c0,0,0,0,0.1,0
	L881.3,154.7z"/>
<linearGradient id="SVGID_19_" gradientUnits="userSpaceOnUse" x1="872.5894" y1="-238.6914" x2="852.2043" y2="-259.0766" gradientTransform="matrix(1.0667 0 0 1.0667 -25.8144 441.4595)">
	<stop  offset="0" style="stop-color:#C2CECE;stop-opacity:0"/>
	<stop  offset="0.179" style="stop-color:#AFBCBC;stop-opacity:0.179"/>
	<stop  offset="1" style="stop-color:#5B6A6A"/>
</linearGradient>
<path class="st29" d="M904.6,183.1c0-7.3-1.6-14.2-4.6-20.4c-1.9,1.8-4.7,4-8.6,6.6c-3.6,2.5-6.2,5.1-10.7,7.7
	c-1.3,0.7-1.7,2.4-1,3.6c0.2,0.3,0.4,0.6,0.7,0.8l20.3,20.3C903.2,196.1,904.6,189.7,904.6,183.1z"/>
<linearGradient id="SVGID_20_" gradientUnits="userSpaceOnUse" x1="874.8492" y1="-226.0936" x2="854.9374" y2="-246.0032" gradientTransform="matrix(1.0667 0 0 1.0667 -25.8144 441.4595)">
	<stop  offset="1.000000e-04" style="stop-color:#008BF2;stop-opacity:0"/>
	<stop  offset="1" style="stop-color:#0046E2"/>
</linearGradient>
<path class="st30" d="M884.4,185.4h16.2c-0.2,4.7-1.2,9.2-2.8,13.3L884.4,185.4z"/>
<linearGradient id="SVGID_21_" gradientUnits="userSpaceOnUse" x1="874.2654" y1="-234.2225" x2="856.5743" y2="-251.9135" gradientTransform="matrix(1.0667 0 0 1.0667 -25.8144 441.4595)">
	<stop  offset="1.000000e-04" style="stop-color:#008BF2;stop-opacity:0"/>
	<stop  offset="1" style="stop-color:#0046E2"/>
</linearGradient>
<path class="st31" d="M900.5,180.9h-20.7c0-0.1-0.1-0.1-0.1-0.2c-0.7-1.3-0.3-2.9,1-3.6c4.5-2.6,7.1-5.2,10.7-7.7
	c2.1-1.5,3.9-2.8,5.4-4C899,170.2,900.3,175.4,900.5,180.9z"/>
<linearGradient id="SVGID_22_" gradientUnits="userSpaceOnUse" x1="862.7139" y1="-266.9622" x2="862.7139" y2="-249.3824" gradientTransform="matrix(1.0667 0 0 1.0667 -25.8144 441.4595)">
	<stop  offset="0" style="stop-color:#FFCF95"/>
	<stop  offset="0.427" style="stop-color:#FFC954"/>
	<stop  offset="1" style="stop-color:#FFC200"/>
</linearGradient>
<path class="st32" d="M909.1,155.4c-1.6-3.6-6.7-3.4-8.4-3.4c-1.6,0-3.4,0.2-5.5,0.6c1.2,1.6,2.4,3.2,3.4,4.9
	c1.8-0.2,3.1-0.2,4.1-0.1c0.8,0.1,1.2,1,0.8,1.7c-0.5,0.7-1.3,1.6-2.5,2.8c-2,1.9-5,4.4-9.6,7.6c-3.6,2.5-6.2,5.1-10.7,7.7
	c-1.3,0.7-1.7,2.4-1,3.6c0.7,1.3,2.3,1.7,3.6,1c5.2-3,8.5-6.1,12.5-8.9c2.9-2,5.3-3.9,7.3-5.7c1.2-1.1,2.2-2.1,3.1-3
	c0.9-1,3.3-3.7,3.3-6.6C909.6,156.8,909.4,156.1,909.1,155.4z"/>
<linearGradient id="SVGID_23_" gradientUnits="userSpaceOnUse" x1="842.7631" y1="-205.6018" x2="814.5555" y2="-233.8094" gradientTransform="matrix(1.0667 0 0 1.0667 -25.8144 441.4595)">
	<stop  offset="0" style="stop-color:#C2CECE;stop-opacity:0"/>
	<stop  offset="0.179" style="stop-color:#AFBCBC;stop-opacity:0.179"/>
	<stop  offset="1" style="stop-color:#5B6A6A"/>
</linearGradient>
<path class="st33" d="M899.7,204.2c-7.8,15.7-24,26.6-42.8,26.6c-17,0-31.8-8.9-40.3-22.2c-1-1.6-1.9-3.2-2.7-4.8
	c1.5-0.3,3.2-0.7,5-1.2c0.2-0.1,0.5-0.1,0.7-0.2c0.3-0.1,0.5-0.1,0.8-0.2c10.4-2.8,23.5-7.8,36.7-13.9c1.9-0.9,3.9-1.8,5.7-2.7
	l-2.7-5.5c-0.6-1.1,0.4-2.4,1.6-2.1l14.1,2.6h0.1h0.1h0.1c0,0,0.1,0,0.1,0.1c0,0,0,0,0.1,0c0,0,0.1,0,0.1,0.1c0.1,0,0.1,0.1,0.1,0.1
	s0,0,0.1,0.1s0.1,0.2,0.2,0.2c0,0.1,0.1,0.2,0.1,0.2L899.7,204.2z"/>
<linearGradient id="SVGID_24_" gradientUnits="userSpaceOnUse" x1="855.1854" y1="-204.6477" x2="821.4261" y2="-238.407" gradientTransform="matrix(1.0667 0 0 1.0667 -25.8144 441.4595)">
	<stop  offset="1.000000e-04" style="stop-color:#008BF2;stop-opacity:0"/>
	<stop  offset="1" style="stop-color:#0046E2"/>
</linearGradient>
<path class="st34" d="M856.9,203.2c5.2,0,10.4,0.4,15.2,1.3c1.4-5.8,2.2-12.3,2.4-19.2h-11.7l0.1,0.2c-1.9,0.9-3.8,1.8-5.7,2.7
	c-5.8,2.7-11.5,5.1-17,7.3c0.4,3.1,0.9,6.1,1.6,9C846.5,203.7,851.7,203.2,856.9,203.2z"/>
<linearGradient id="SVGID_25_" gradientUnits="userSpaceOnUse" x1="846.495" y1="-195.9596" x2="812.7357" y2="-229.7188" gradientTransform="matrix(1.0667 0 0 1.0667 -25.8144 441.4595)">
	<stop  offset="1.000000e-04" style="stop-color:#008BF2;stop-opacity:0"/>
	<stop  offset="1" style="stop-color:#0046E2"/>
</linearGradient>
<path class="st35" d="M870.9,208.9c-4.4-0.8-9.2-1.2-14-1.2s-9.5,0.4-14,1.2c0.6,1.9,1.3,3.7,2,5.4c3.3,7.6,7.7,11.9,12,11.9
	s8.7-4.3,12-11.9C869.6,212.6,870.3,210.8,870.9,208.9z"/>
<linearGradient id="SVGID_26_" gradientUnits="userSpaceOnUse" x1="852.4667" y1="-201.9291" x2="818.7073" y2="-235.6883" gradientTransform="matrix(1.0667 0 0 1.0667 -25.8144 441.4595)">
	<stop  offset="1.000000e-04" style="stop-color:#008BF2;stop-opacity:0"/>
	<stop  offset="1" style="stop-color:#0046E2"/>
</linearGradient>
<path class="st36" d="M873,216.1c-1.7,3.9-3.7,7.1-5.9,9.5c7.9-1.9,14.9-5.9,20.5-11.4c-3.6-1.8-7.8-3.3-12.3-4.4
	C874.7,212.1,873.9,214.2,873,216.1z"/>
<linearGradient id="SVGID_27_" gradientUnits="userSpaceOnUse" x1="864.5366" y1="-213.9991" x2="830.7773" y2="-247.7582" gradientTransform="matrix(1.0667 0 0 1.0667 -25.8144 441.4595)">
	<stop  offset="1.000000e-04" style="stop-color:#008BF2;stop-opacity:0"/>
	<stop  offset="1" style="stop-color:#0046E2"/>
</linearGradient>
<path class="st37" d="M880.8,185.4H879c-0.1,7.1-1,13.9-2.5,20.1c4.9,1.2,9.5,2.8,13.5,4.9c0.2,0.1,0.5,0.3,0.7,0.4
	c2.4-2.9,4.3-6.1,5.9-9.5L880.8,185.4z"/>
<linearGradient id="SVGID_28_" gradientUnits="userSpaceOnUse" x1="835.0297" y1="-184.4921" x2="801.2704" y2="-218.2514" gradientTransform="matrix(1.0667 0 0 1.0667 -25.8144 441.4595)">
	<stop  offset="1.000000e-04" style="stop-color:#008BF2;stop-opacity:0"/>
	<stop  offset="1" style="stop-color:#0046E2"/>
</linearGradient>
<path class="st38" d="M838.5,209.9c-4.5,1.1-8.6,2.5-12.3,4.4c5.6,5.5,12.6,9.5,20.5,11.4c-2.2-2.4-4.2-5.6-5.9-9.5
	C839.9,214.2,839.1,212.1,838.5,209.9z"/>
<linearGradient id="SVGID_29_" gradientUnits="userSpaceOnUse" x1="837.419" y1="-186.8837" x2="803.6599" y2="-220.643" gradientTransform="matrix(1.0667 0 0 1.0667 -25.8144 441.4595)">
	<stop  offset="1.000000e-04" style="stop-color:#008BF2;stop-opacity:0"/>
	<stop  offset="1" style="stop-color:#0046E2"/>
</linearGradient>
<path class="st39" d="M837.3,205.5c-0.2-1-0.4-1.9-0.6-2.9c-0.4-1.7-0.7-3.5-0.9-5.3c-5.5,2-10.6,3.7-15.3,5
	c-0.9,0.2-1.7,0.5-2.5,0.7c0.8,1.6,1.8,3.2,2.8,4.8c0.7,1.1,1.5,2.1,2.3,3.1c0.2-0.1,0.5-0.3,0.7-0.4c2.3-1.2,4.7-2.2,7.4-3.1
	C833.1,206.6,835.1,206,837.3,205.5z"/>
<linearGradient id="SVGID_30_" gradientUnits="userSpaceOnUse" x1="797.115" y1="-215.0011" x2="772.5105" y2="-239.6051" gradientTransform="matrix(1.0667 0 0 1.0667 -25.8144 441.4595)">
	<stop  offset="0" style="stop-color:#C2CECE;stop-opacity:0"/>
	<stop  offset="0.179" style="stop-color:#AFBCBC;stop-opacity:0.179"/>
	<stop  offset="1" style="stop-color:#5B6A6A"/>
</linearGradient>
<path class="st40" d="M809.9,197.1L809.9,197.1c0.9,3,2.1,6,3.5,8.7c3.7-0.7,7.4-2.1,7.4-2.1l-12.3-12.3
	C808.9,193.4,809.4,195.3,809.9,197.1z"/>
<linearGradient id="SVGID_31_" gradientUnits="userSpaceOnUse" x1="795.2427" y1="-220.1073" x2="785.889" y2="-229.461" gradientTransform="matrix(1.0667 0 0 1.0667 -25.8144 441.4595)">
	<stop  offset="1.000000e-04" style="stop-color:#008BF2;stop-opacity:0"/>
	<stop  offset="1" style="stop-color:#0046E2"/>
</linearGradient>
<path class="st41" d="M818.8,204.4c1.3-0.4,2.1-0.7,2.1-0.7l-4.7-4.7C816.9,200.9,817.8,202.7,818.8,204.4z"/>
<linearGradient id="SVGID_32_" gradientUnits="userSpaceOnUse" x1="804.6095" y1="-243.3404" x2="813.7168" y2="-222.3118" gradientTransform="matrix(1.0667 0 0 1.0667 -25.8144 441.4595)">
	<stop  offset="0" style="stop-color:#FFCF95"/>
	<stop  offset="0.427" style="stop-color:#FFC954"/>
	<stop  offset="1" style="stop-color:#FFC200"/>
</linearGradient>
<path class="st42" d="M875.8,180.5l-14.1-2.6c-1.2-0.2-2.2,1-1.6,2.1l2.8,5.5c-1.9,0.9-3.8,1.8-5.7,2.7c-13.2,6.1-26.2,11-36.7,13.9
	c-3.1,0.8-5.7,1.4-7.9,1.8c-3.9,0.7-6.4,0.8-7.8,0.7c-0.8-0.1-1.2-1-0.8-1.6c0.9-1.3,2.7-3.2,6-5.9c-0.6-1.9-1-3.8-1.3-5.7
	c-3.2,2.4-5.7,4.6-7.4,6.6c-1.1,1.2-4.5,5-2.8,8.6c1.4,3.1,5.5,3.4,7.6,3.4c0.3,0,0.6,0,0.8,0c2.3-0.1,5.2-0.4,8.5-1.1
	c1.5-0.3,3.2-0.7,4.9-1.1c11-2.8,24.9-8,39.2-14.6c2-0.9,4-1.9,5.9-2.8l2.6,5.2c0.6,1.1,2.1,1.1,2.7,0l6.3-12.9
	C877.3,181.8,876.8,180.7,875.8,180.5z"/>
<linearGradient id="SVGID_33_" gradientUnits="userSpaceOnUse" x1="778.3951" y1="-229.1908" x2="781.3755" y2="-226.3333" gradientTransform="matrix(1.0667 0 0 1.0667 -25.8144 441.4595)">
	<stop  offset="0" style="stop-color:#FFC200;stop-opacity:0"/>
	<stop  offset="0.203" style="stop-color:#FFBB00;stop-opacity:0.203"/>
	<stop  offset="0.499" style="stop-color:#FFA700;stop-opacity:0.499"/>
	<stop  offset="0.852" style="stop-color:#FF8800;stop-opacity:0.852"/>
	<stop  offset="1" style="stop-color:#FF7800"/>
</linearGradient>
<path class="st43" d="M804.3,204.5L804.3,204.5c-0.5-0.3-0.7-1-0.4-1.5c0.9-1.3,2.7-3.2,6-5.9c-0.4-1.3-0.7-2.6-1-4
	c-2.2,1.9-7,6.3-7.4,7.7C801.1,202.8,804.3,204.5,804.3,204.5z"/>
<g>
	<path class="st6" d="M593.4,238.6c0-0.5,0.1-1,0.3-1.5s0.5-1,0.8-1.3c0.4-0.4,0.8-0.7,1.3-1c0.5-0.2,1.1-0.4,1.8-0.4
		c0.8,0,1.4,0.2,2,0.5s1,0.8,1.3,1.3l-1.3,0.9c-0.1-0.2-0.2-0.4-0.4-0.6c-0.2-0.2-0.3-0.3-0.5-0.4s-0.4-0.2-0.6-0.2
		c-0.2,0-0.4-0.1-0.6-0.1c-0.4,0-0.8,0.1-1.1,0.2c-0.3,0.2-0.6,0.4-0.8,0.6c-0.2,0.3-0.4,0.6-0.5,0.9c-0.1,0.3-0.2,0.7-0.2,1
		c0,0.4,0.1,0.7,0.2,1.1c0.1,0.3,0.3,0.6,0.5,0.9c0.2,0.3,0.5,0.5,0.8,0.6c0.3,0.2,0.6,0.2,1,0.2c0.2,0,0.4,0,0.6-0.1
		c0.2,0,0.4-0.1,0.6-0.2s0.4-0.2,0.5-0.4s0.3-0.4,0.4-0.6l1.3,0.8c-0.1,0.3-0.3,0.6-0.6,0.8c-0.2,0.2-0.5,0.4-0.8,0.6
		c-0.3,0.2-0.6,0.3-1,0.4s-0.7,0.1-1,0.1c-0.6,0-1.1-0.1-1.6-0.4c-0.5-0.3-0.9-0.6-1.3-1c-0.4-0.4-0.6-0.9-0.8-1.4
		C593.5,239.6,593.4,239.1,593.4,238.6z"/>
	<path class="st6" d="M605.5,242.9c-0.6,0-1.2-0.1-1.7-0.4c-0.5-0.2-0.9-0.6-1.3-1c-0.4-0.4-0.6-0.9-0.8-1.4c-0.2-0.5-0.3-1-0.3-1.6
		c0-0.6,0.1-1.1,0.3-1.6c0.2-0.5,0.5-1,0.9-1.4c0.4-0.4,0.8-0.7,1.3-0.9c0.5-0.2,1.1-0.3,1.6-0.3c0.6,0,1.2,0.1,1.7,0.4
		c0.5,0.2,0.9,0.6,1.3,1s0.6,0.9,0.8,1.4c0.2,0.5,0.3,1,0.3,1.6c0,0.6-0.1,1.1-0.3,1.6s-0.5,1-0.9,1.4c-0.4,0.4-0.8,0.7-1.3,0.9
		C606.7,242.8,606.1,242.9,605.5,242.9z M603.1,238.6c0,0.4,0.1,0.7,0.2,1.1c0.1,0.3,0.3,0.6,0.5,0.9c0.2,0.3,0.5,0.5,0.8,0.6
		c0.3,0.2,0.6,0.2,1,0.2c0.4,0,0.7-0.1,1-0.2c0.3-0.2,0.6-0.4,0.8-0.6c0.2-0.3,0.4-0.6,0.5-0.9c0.1-0.3,0.2-0.7,0.2-1
		c0-0.4-0.1-0.7-0.2-1.1s-0.3-0.6-0.5-0.9c-0.2-0.3-0.5-0.5-0.8-0.6s-0.6-0.2-1-0.2c-0.4,0-0.7,0.1-1.1,0.2
		c-0.3,0.2-0.6,0.4-0.8,0.6s-0.4,0.6-0.5,0.9C603.2,237.9,603.1,238.3,603.1,238.6z"/>
	<path class="st6" d="M612.6,237.4v5.4h-1.6v-8.4h1.3l4.4,5.5v-5.5h1.6v8.4h-1.3L612.6,237.4z"/>
	<path class="st6" d="M621.6,237.4v5.4H620v-8.4h1.3l4.4,5.5v-5.5h1.6v8.4h-1.3L621.6,237.4z"/>
	<path class="st6" d="M634.8,241.4v1.4H629v-8.4h5.7v1.4h-4.1v2h3.5v1.3h-3.5v2.2H634.8z"/>
	<path class="st6" d="M635.4,238.6c0-0.5,0.1-1,0.3-1.5s0.5-1,0.8-1.3c0.4-0.4,0.8-0.7,1.3-1c0.5-0.2,1.1-0.4,1.8-0.4
		c0.8,0,1.4,0.2,2,0.5s1,0.8,1.3,1.3l-1.3,0.9c-0.1-0.2-0.2-0.4-0.4-0.6c-0.2-0.2-0.3-0.3-0.5-0.4s-0.4-0.2-0.6-0.2
		c-0.2,0-0.4-0.1-0.6-0.1c-0.4,0-0.8,0.1-1.1,0.2c-0.3,0.2-0.6,0.4-0.8,0.6c-0.2,0.3-0.4,0.6-0.5,0.9c-0.1,0.3-0.2,0.7-0.2,1
		c0,0.4,0.1,0.7,0.2,1.1c0.1,0.3,0.3,0.6,0.5,0.9c0.2,0.3,0.5,0.5,0.8,0.6c0.3,0.2,0.6,0.2,1,0.2c0.2,0,0.4,0,0.6-0.1
		c0.2,0,0.4-0.1,0.6-0.2s0.4-0.2,0.5-0.4s0.3-0.4,0.4-0.6l1.3,0.8c-0.1,0.3-0.3,0.6-0.6,0.8c-0.2,0.2-0.5,0.4-0.8,0.6
		c-0.3,0.2-0.6,0.3-1,0.4s-0.7,0.1-1,0.1c-0.6,0-1.1-0.1-1.6-0.4c-0.5-0.3-0.9-0.6-1.3-1c-0.4-0.4-0.6-0.9-0.8-1.4
		C635.5,239.6,635.4,239.1,635.4,238.6z"/>
	<path class="st6" d="M650.3,235.8h-2.7v7H646v-7h-2.7v-1.4h7V235.8z"/>
</g>
</svg>
