<svg xmlns="http://www.w3.org/2000/svg" viewBox="0 0 80 80">
    <defs>
        <style>
            .cls-1,.cls-3{fill:#207fe1}.cls-1{stroke:#707070}.cls-2{clip-path:url(#clip-path)}
        </style>
        <clipPath id="clip-path">
            <path id="Rectangle_45" d="M0 0h80v80H0z" class="cls-1" data-name="Rectangle 45" transform="translate(275 1033)"/>
        </clipPath>
    </defs>
    <g id="Mask_Group_3" class="cls-2" data-name="Mask Group 3" transform="translate(-275 -1033)">
        <g id="_002-database" data-name="002-database" transform="translate(275 1033.001)">
            <path id="Path_390" d="M14 8.167a6 6 0 1 0 6 6 6.007 6.007 0 0 0-6-6zm0 9.333a3.333 3.333 0 1 1 3.333-3.333A3.337 3.337 0 0 1 14 17.5z" class="cls-3" data-name="Path 390"/>
            <circle id="Ellipse_3" cx="1.333" cy="1.333" r="1.333" class="cls-3" data-name="Ellipse 3" transform="translate(65.333 10.833)"/>
            <circle id="Ellipse_4" cx="1.333" cy="1.333" r="1.333" class="cls-3" data-name="Ellipse 4" transform="translate(60 10.833)"/>
            <circle id="Ellipse_5" cx="1.333" cy="1.333" r="1.333" class="cls-3" data-name="Ellipse 5" transform="translate(68 14.833)"/>
            <circle id="Ellipse_6" cx="1.333" cy="1.333" r="1.333" class="cls-3" data-name="Ellipse 6" transform="translate(62.667 14.833)"/>
            <circle id="Ellipse_7" cx="1.333" cy="1.333" r="1.333" class="cls-3" data-name="Ellipse 7" transform="translate(54.667 10.833)"/>
            <circle id="Ellipse_8" cx="1.333" cy="1.333" r="1.333" class="cls-3" data-name="Ellipse 8" transform="translate(57.333 14.833)"/>
            <circle id="Ellipse_9" cx="1.333" cy="1.333" r="1.333" class="cls-3" data-name="Ellipse 9" transform="translate(49.333 10.833)"/>
            <circle id="Ellipse_10" cx="1.333" cy="1.333" r="1.333" class="cls-3" data-name="Ellipse 10" transform="translate(52 14.833)"/>
            <circle id="Ellipse_11" cx="1.333" cy="1.333" r="1.333" class="cls-3" data-name="Ellipse 11" transform="translate(44 10.833)"/>
            <circle id="Ellipse_12" cx="1.333" cy="1.333" r="1.333" class="cls-3" data-name="Ellipse 12" transform="translate(46.667 14.833)"/>
            <path id="Path_391" d="M14 33.5a6 6 0 1 0 6 6 6.007 6.007 0 0 0-6-6zm0 9.333a3.333 3.333 0 1 1 3.333-3.333A3.337 3.337 0 0 1 14 42.833z" class="cls-3" data-name="Path 391"/>
            <path id="Path_392" d="M14 58.833a6 6 0 1 0 6 6 6.007 6.007 0 0 0-6-6zm0 9.333a3.333 3.333 0 1 1 3.333-3.333A3.337 3.337 0 0 1 14 68.167z" class="cls-3" data-name="Path 392"/>
            <path id="Path_393" d="M80 22.023V6.311A6.151 6.151 0 0 0 73.856.167H6.144A6.151 6.151 0 0 0 0 6.311v15.71a6.108 6.108 0 0 0 2.369 4.811A6.115 6.115 0 0 0 0 31.644v15.711a6.108 6.108 0 0 0 2.369 4.811A6.115 6.115 0 0 0 0 56.977v15.711a6.151 6.151 0 0 0 6.144 6.144h37.167a63.722 63.722 0 0 0 11.356 1c11.563 0 23.755-3 25.193-8.737A1.32 1.32 0 0 0 80 70.5v-37a1.308 1.308 0 0 0-.128-.555c-.463-1.952-2.2-3.6-4.749-4.913A6.152 6.152 0 0 0 80 22.023zM2.667 47.356V31.644a3.481 3.481 0 0 1 3.477-3.477h27.813c-2.412 1.295-4.049 2.892-4.5 4.779a1.313 1.313 0 0 0-.128.555v17.332H6.144a3.481 3.481 0 0 1-3.477-3.477zm30.168-8.183c.06.039.124.077.185.116q.352.22.733.432c.073.04.144.081.217.12.311.167.633.329.969.485.053.025.111.049.164.073.295.135.6.264.909.391.092.037.183.075.275.111.368.144.743.285 1.131.419l.064.021a32.474 32.474 0 0 0 1.455.458c.384.112.773.221 1.172.325l.095.025c.429.111.868.213 1.313.313l.337.073q.572.124 1.156.236l.232.045q.686.128 1.388.239l.335.052q.582.09 1.173.168l.324.043q.716.09 1.441.167c.1.011.2.019.293.028.407.04.816.076 1.225.109l.371.029c.489.036.981.068 1.473.093l.211.009q.65.032 1.3.049l.393.011c.5.011.995.019 1.491.019s.993-.008 1.491-.019l.393-.011a61.95 61.95 0 0 0 1.3-.049l.211-.009c.492-.025.984-.057 1.473-.093l.371-.029c.411-.032.819-.069 1.225-.109l.293-.028q.726-.076 1.441-.167l.324-.043c.393-.052.785-.108 1.173-.168.112-.017.224-.033.335-.052q.7-.112 1.388-.239l.232-.045q.586-.112 1.156-.236l.337-.073c.444-.1.884-.2 1.313-.313l.095-.025c.4-.1.788-.212 1.172-.325.105-.031.211-.061.315-.093.388-.117.769-.239 1.14-.365l.064-.021a30.817 30.817 0 0 0 1.406-.53c.312-.127.615-.256.909-.391.055-.025.111-.048.164-.073.336-.156.657-.319.969-.485.075-.04.145-.08.217-.12q.38-.21.733-.432c.061-.039.125-.076.185-.116q.414-.268.785-.552l.051-.035v6.651a1.3 1.3 0 0 0-.028.471 1.541 1.541 0 0 1 .032.292 1.928 1.928 0 0 1-.077.444 2.313 2.313 0 0 1-.112.345 2.688 2.688 0 0 1-.155.3 3.439 3.439 0 0 1-.192.3 4.4 4.4 0 0 1-.351.416c-.049.053-.1.107-.152.16-2.823 2.731-11.152 5.2-21.627 5.2S35.875 50.7 33.047 47.972a4.417 4.417 0 0 1-.165-.175 4.478 4.478 0 0 1-.337-.4 3.33 3.33 0 0 1-.2-.317 2.754 2.754 0 0 1-.147-.285 2.279 2.279 0 0 1-.117-.361A1.829 1.829 0 0 1 32 46a1.679 1.679 0 0 1 .028-.283A1.329 1.329 0 0 0 32 45.2v-6.615l.051.035q.37.28.784.553zm44.308 19.616a2.688 2.688 0 0 1-.155.3 3.443 3.443 0 0 1-.192.3 4.4 4.4 0 0 1-.351.416c-.049.053-.1.107-.152.16-2.823 2.731-11.152 5.2-21.627 5.2S35.873 62.7 33.045 59.972a4.417 4.417 0 0 1-.165-.175 4.478 4.478 0 0 1-.337-.4 3.329 3.329 0 0 1-.2-.317 2.753 2.753 0 0 1-.147-.285 2.278 2.278 0 0 1-.117-.361 1.868 1.868 0 0 1-.067-.377V57.9c.005-.06.008-.12.017-.18a1.265 1.265 0 0 0-.019-.34L32 50.833v-.248c.053.041.116.08.172.12.168.125.344.248.524.369.147.1.3.193.453.289.239.147.479.292.735.432h.007a34.6 34.6 0 0 0 10.833 3.273l.1.015c1.364.212 2.764.377 4.188.5.3.025.6.052.909.073s.595.04.893.056q.6.034 1.208.059c.235.009.469.02.705.027.649.019 1.3.032 1.944.032s1.293-.012 1.94-.031c.237-.007.473-.017.711-.027q.6-.024 1.2-.057.452-.026.9-.057c.3-.021.6-.047.895-.072a62.568 62.568 0 0 0 4.227-.5l.061-.009c4.62-.723 8.752-1.964 11.575-3.705.153-.095.305-.189.451-.287.18-.12.356-.243.523-.368.06-.044.128-.085.187-.131v6.651a1.3 1.3 0 0 0-.028.471 2.138 2.138 0 0 1 .027.292 1.928 1.928 0 0 1-.077.444 2.321 2.321 0 0 1-.12.345zm-71 17.377a3.481 3.481 0 0 1-3.477-3.477V56.977A3.481 3.481 0 0 1 6.144 53.5h23.189v18.333h.395c.021.049.052.1.076.147.047.1.1.2.152.3a6.023 6.023 0 0 0 .371.584 6.765 6.765 0 0 0 .452.565c.083.093.165.185.255.277a10.6 10.6 0 0 0 1.832 1.481l.075.048a16.715 16.715 0 0 0 1.664.936H6.144zm71.189-6.008c-.011.041-.02.084-.027.125-.545 3.324-9.773 6.883-22.64 6.883a60.267 60.267 0 0 1-11.033-.966v-.011c-6.631-1.255-10.3-3.373-11.327-5.16a.007.007 0 0 1 0-.005c-.047-.083-.08-.164-.116-.244a2.275 2.275 0 0 1-.161-.5l-.012-7.68c.048.037.105.072.155.109.168.125.344.248.524.369.147.1.3.193.453.289.239.147.479.292.735.432h.007a34.6 34.6 0 0 0 10.833 3.273l.1.015c1.364.212 2.764.377 4.188.5.3.025.6.052.909.073s.595.04.893.056q.6.034 1.208.059c.235.009.469.02.705.027.649.019 1.3.032 1.944.032s1.293-.012 1.94-.031c.237-.007.473-.017.711-.027q.6-.024 1.2-.057.452-.026.9-.057c.3-.021.6-.047.895-.072a62.568 62.568 0 0 0 4.227-.5l.061-.009c4.62-.723 8.752-1.964 11.575-3.705.153-.095.305-.189.451-.287.18-.12.356-.243.523-.368.06-.044.128-.085.187-.131v7.571zm0-36.159c0 3.383-9.695 7.167-22.667 7.167S32 37.383 32 34a1.919 1.919 0 0 1 .091-.517 2.474 2.474 0 0 1 .232-.529l.012-.024a7.206 7.206 0 0 1 2.716-2.308l.179-.1q.354-.192.748-.38a21.23 21.23 0 0 1 1.155-.504 34.619 34.619 0 0 1 5.517-1.613 47.741 47.741 0 0 1 2.015-.384c.183-.031.361-.063.547-.092a65.075 65.075 0 0 1 18.9 0c.188.029.369.063.555.093.684.113 1.349.243 2 .381 6.504 1.388 10.666 3.765 10.666 5.977zm0-11.977a3.481 3.481 0 0 1-3.476 3.478h-6.173c-.077-.017-.163-.028-.24-.045a49.577 49.577 0 0 0-2.695-.505l-.268-.041a65.3 65.3 0 0 0-19.624 0l-.275.041c-.917.147-1.815.316-2.687.5-.079.017-.167.028-.245.045H6.144a3.479 3.479 0 0 1-3.477-3.476V6.311a3.481 3.481 0 0 1 3.477-3.478h67.711a3.482 3.482 0 0 1 3.479 3.477z" class="cls-3" data-name="Path 393"/>
        </g>
    </g>
</svg>
