<svg xmlns="http://www.w3.org/2000/svg" viewBox="0 0 116.087 35.904">
  <defs>
    <style>
      .cls-1 {
        fill: #fff;
      }
    </style>
  </defs>
  <g id="logo" transform="translate(-13.2 -9.758)">
    <g id="Group_310" data-name="Group 310" transform="translate(88.926 9.758)">
      <g id="Group_303" data-name="Group 303" transform="translate(9.662)">
        <g id="Group_302" data-name="Group 302">
          <path id="Path_684" data-name="Path 684" class="cls-1" d="M422.7,23.377l-4.6-12.438a1.745,1.745,0,0,0-.946-1.014,1.715,1.715,0,0,0-1.374-.045l-22.442,8.292a1.745,1.745,0,0,0-1.014.946,1.715,1.715,0,0,0-.045,1.374l4.6,12.438a1.745,1.745,0,0,0,.946,1.014,1.767,1.767,0,0,0,.744.158,2.069,2.069,0,0,0,.631-.113l22.442-8.314h0A1.8,1.8,0,0,0,422.7,23.377Zm-8.157-11.131L407.579,22.2l-11.762-3.019ZM398.251,31.421l-3.988-10.793,9.238,2.388Zm1.96.27,5.137-8.224,2.411.631a.767.767,0,0,0,.225.023.908.908,0,0,0,.744-.383l1.42-2.05,9.238,2.907Zm11.018-11.537,5.453-7.819,4.011,10.77Z" transform="translate(-392.158 -9.758)"/>
        </g>
      </g>
      <g id="Group_305" data-name="Group 305" transform="translate(5.363 22.83)">
        <g id="Group_304" data-name="Group 304">
          <path id="Path_685" data-name="Path 685" class="cls-1" d="M378.221,111.669a.912.912,0,0,0-1.149-.541l-3.4,1.262a.912.912,0,0,0-.541,1.149.9.9,0,0,0,.856.586,1.522,1.522,0,0,0,.315-.045l3.4-1.262A.9.9,0,0,0,378.221,111.669Z" transform="translate(-373.078 -111.078)"/>
        </g>
      </g>
      <g id="Group_307" data-name="Group 307" transform="translate(2.073 14.448)">
        <g id="Group_306" data-name="Group 306">
          <path id="Path_686" data-name="Path 686" class="cls-1" d="M362.314,74.469a.912.912,0,0,0-1.149-.541l-2.1.766a.912.912,0,0,0-.541,1.149.9.9,0,0,0,.856.586,1.52,1.52,0,0,0,.315-.045l2.1-.766A.884.884,0,0,0,362.314,74.469Z" transform="translate(-358.478 -73.878)"/>
        </g>
      </g>
      <g id="Group_309" data-name="Group 309" transform="translate(0 21.275)">
        <g id="Group_308" data-name="Group 308">
          <path id="Path_687" data-name="Path 687" class="cls-1" d="M352.573,104.769a.912.912,0,0,0-1.149-.541l-1.555.586a.912.912,0,0,0-.541,1.149.9.9,0,0,0,.856.586,1.521,1.521,0,0,0,.315-.045l1.555-.586A.866.866,0,0,0,352.573,104.769Z" transform="translate(-349.278 -104.178)"/>
        </g>
      </g>
    </g>
    <g id="Group_311" data-name="Group 311" transform="translate(13.2 18.284)">
      <path id="Path_688" data-name="Path 688" class="cls-1" d="M18.743,62.156c-3.064,0-5.453-1.51-5.543-4.394h3.7a1.618,1.618,0,0,0,1.758,1.622c1.014,0,1.667-.5,1.667-1.329,0-2.636-7.12-1.217-7.075-6.264,0-2.7,2.208-4.191,5.182-4.191,3.109,0,5.182,1.532,5.318,4.259H20a1.553,1.553,0,0,0-1.645-1.487A1.265,1.265,0,0,0,16.9,51.678c0,2.479,7.03,1.352,7.03,6.129C23.948,60.173,22.078,62.156,18.743,62.156Z" transform="translate(-13.2 -47.6)"/>
      <path id="Path_689" data-name="Path 689" class="cls-1" d="M85,48.5h3.718l2.05,10.365L93.292,48.5H97.1l2.433,10.365L101.606,48.5h3.718l-3.718,14.218H97.415L95.14,53.344,92.8,62.7H88.605Z" transform="translate(-68.822 -48.297)"/>
      <path id="Path_690" data-name="Path 690" class="cls-1" d="M200.9,48.5h3.47V62.718H200.9Z" transform="translate(-158.607 -48.297)"/>
      <path id="Path_691" data-name="Path 691" class="cls-1" d="M245.4,48.5h9.261v2.771H248.87v3H253.2v2.7H248.87v5.746H245.4Z" transform="translate(-193.08 -48.297)"/>
      <path id="Path_692" data-name="Path 692" class="cls-1" d="M309.1,48.5h11.018v2.771h-3.763V62.718h-3.47V51.271h-3.763V48.5Z" transform="translate(-242.427 -48.297)"/>
    </g>
    <g id="Group_312" data-name="Group 312" transform="translate(13.899 38.721)">
      <path id="Path_693" data-name="Path 693" class="cls-1" d="M20.018,138.7v.856H17.4v2.05h2.343v.856H17.4V144.6H20.04v.856H16.3V138.7Z" transform="translate(-16.3 -138.61)"/>
      <path id="Path_694" data-name="Path 694" class="cls-1" d="M55.12,138.7v6.76h-1.1v-4.619l-2.073,4.619h-.766L49.1,140.841v4.619H48V138.7h1.194L51.56,144l2.366-5.3Z" transform="translate(-40.857 -138.61)"/>
      <path id="Path_695" data-name="Path 695" class="cls-1" d="M98.28,145.46l-.5-1.374H94.945l-.5,1.374H93.3l2.411-6.76H97l2.411,6.76Zm-3.019-2.253h2.231l-1.1-3.177Z" transform="translate(-75.95 -138.61)"/>
      <path id="Path_696" data-name="Path 696" class="cls-1" d="M134.3,145.46V138.7h1.1v6.76Z" transform="translate(-107.712 -138.61)"/>
      <path id="Path_697" data-name="Path 697" class="cls-1" d="M154.723,138.7h1.1v5.9H158.1v.856h-3.4V138.7Z" transform="translate(-123.515 -138.61)"/>
      <path id="Path_698" data-name="Path 698" class="cls-1" d="M209.378,139.263a1.9,1.9,0,0,1,.631,1.42,2.027,2.027,0,0,1-.586,1.442,2.475,2.475,0,0,1-1.8.586H206.4v2.749h-1.1V138.7h2.343A2.514,2.514,0,0,1,209.378,139.263Zm-3,2.591H207.6a1.289,1.289,0,0,0,.946-.293,1.259,1.259,0,0,0,0-1.667,1.289,1.289,0,0,0-.946-.293h-1.217Z" transform="translate(-162.714 -138.61)"/>
      <path id="Path_699" data-name="Path 699" class="cls-1" d="M241.1,142.711v2.749H240V138.7h2.343a2.559,2.559,0,0,1,1.78.563,1.908,1.908,0,0,1,.631,1.442,1.977,1.977,0,0,1-.406,1.217,2.012,2.012,0,0,1-1.262.721l1.78,2.817h-1.352l-1.69-2.749Zm0-3.155v2.276h1.217a1.289,1.289,0,0,0,.946-.293,1.259,1.259,0,0,0,0-1.667,1.289,1.289,0,0,0-.946-.293H241.1Z" transform="translate(-189.595 -138.61)"/>
      <path id="Path_700" data-name="Path 700" class="cls-1" d="M278.147,145.295a3.382,3.382,0,0,1-2.456-.969,3.294,3.294,0,0,1-.991-2.479,3.448,3.448,0,1,1,5.9,2.479A3.346,3.346,0,0,1,278.147,145.295Zm0-.991a2.207,2.207,0,0,0,1.667-.676,2.751,2.751,0,0,0,0-3.56,2.394,2.394,0,0,0-3.335,0,2.751,2.751,0,0,0,0,3.56A2.207,2.207,0,0,0,278.147,144.3Z" transform="translate(-216.476 -138.377)"/>
      <path id="Path_701" data-name="Path 701" class="cls-1" d="M318.691,144.226a3.26,3.26,0,0,1-.991-2.479,3.351,3.351,0,0,1,3.447-3.447,3.459,3.459,0,0,1,1.915.541,3,3,0,0,1,1.217,1.51H322.95a1.889,1.889,0,0,0-1.8-1.014,2.207,2.207,0,0,0-1.667.676,2.751,2.751,0,0,0,0,3.56,2.207,2.207,0,0,0,1.667.676,1.889,1.889,0,0,0,1.8-1.014h1.329a2.855,2.855,0,0,1-1.217,1.487,3.443,3.443,0,0,1-1.915.518A3.516,3.516,0,0,1,318.691,144.226Z" transform="translate(-249.787 -138.3)"/>
      <path id="Path_702" data-name="Path 702" class="cls-1" d="M365.44,138.7v.856H362.8v2.05h2.343v.856H362.8V144.6h2.636v.856H361.7V138.7Z" transform="translate(-283.873 -138.61)"/>
      <path id="Path_703" data-name="Path 703" class="cls-1" d="M395.053,139.2a1.289,1.289,0,0,0-.811.248.889.889,0,0,0-.315.744.86.86,0,0,0,.361.744,2.518,2.518,0,0,0,.9.361,9.126,9.126,0,0,1,1.059.27,1.811,1.811,0,0,1,.9.563,1.636,1.636,0,0,1,.361,1.149,1.817,1.817,0,0,1-.631,1.352,2.343,2.343,0,0,1-1.69.586,2.713,2.713,0,0,1-1.712-.5,1.6,1.6,0,0,1-.653-1.374h1.194a1.041,1.041,0,0,0,.338.721,1.22,1.22,0,0,0,.856.27,1.186,1.186,0,0,0,.879-.293.883.883,0,0,0,.315-.7.923.923,0,0,0-.2-.631,1.156,1.156,0,0,0-.518-.338c-.2-.068-.451-.135-.7-.2s-.518-.135-.766-.2a3.252,3.252,0,0,1-.7-.293,1.337,1.337,0,0,1-.518-.541,1.944,1.944,0,0,1,.428-2.3,2.452,2.452,0,0,1,1.645-.541,2.572,2.572,0,0,1,1.622.473,1.8,1.8,0,0,1,.676,1.352h-1.217a.933.933,0,0,0-.338-.653A1.025,1.025,0,0,0,395.053,139.2Z" transform="translate(-307.966 -138.3)"/>
      <path id="Path_704" data-name="Path 704" class="cls-1" d="M430.253,139.2a1.289,1.289,0,0,0-.811.248.889.889,0,0,0-.315.744.86.86,0,0,0,.361.744,2.518,2.518,0,0,0,.9.361,9.122,9.122,0,0,1,1.059.27,1.811,1.811,0,0,1,.9.563,1.636,1.636,0,0,1,.361,1.149,1.817,1.817,0,0,1-.631,1.352,2.343,2.343,0,0,1-1.69.586,2.712,2.712,0,0,1-1.712-.5,1.6,1.6,0,0,1-.654-1.374h1.194a1.041,1.041,0,0,0,.338.721,1.22,1.22,0,0,0,.856.27,1.186,1.186,0,0,0,.879-.293.883.883,0,0,0,.315-.7.923.923,0,0,0-.2-.631,1.156,1.156,0,0,0-.518-.338c-.2-.068-.451-.135-.7-.2s-.518-.135-.766-.2a3.251,3.251,0,0,1-.7-.293,1.337,1.337,0,0,1-.518-.541,1.944,1.944,0,0,1,.428-2.3,2.452,2.452,0,0,1,1.645-.541,2.572,2.572,0,0,1,1.622.473,1.8,1.8,0,0,1,.676,1.352h-1.217a.933.933,0,0,0-.338-.653A1.06,1.06,0,0,0,430.253,139.2Z" transform="translate(-335.234 -138.3)"/>
      <path id="Path_705" data-name="Path 705" class="cls-1" d="M465.647,145.295a3.382,3.382,0,0,1-2.456-.969,3.294,3.294,0,0,1-.991-2.479,3.448,3.448,0,1,1,5.9,2.479A3.346,3.346,0,0,1,465.647,145.295Zm0-.991a2.207,2.207,0,0,0,1.667-.676,2.751,2.751,0,0,0,0-3.56,2.394,2.394,0,0,0-3.335,0,2.751,2.751,0,0,0,0,3.56A2.207,2.207,0,0,0,465.647,144.3Z" transform="translate(-361.728 -138.377)"/>
      <path id="Path_706" data-name="Path 706" class="cls-1" d="M507.9,142.711v2.749h-1.1V138.7h2.343a2.559,2.559,0,0,1,1.78.563,1.908,1.908,0,0,1,.631,1.442,1.977,1.977,0,0,1-.406,1.217,2.012,2.012,0,0,1-1.262.721l1.78,2.817h-1.352l-1.69-2.749Zm0-3.155v2.276h1.217a1.289,1.289,0,0,0,.946-.293,1.259,1.259,0,0,0,0-1.667,1.289,1.289,0,0,0-.946-.293H507.9Z" transform="translate(-396.279 -138.61)"/>
    </g>
  </g>
</svg>
