<svg xmlns="http://www.w3.org/2000/svg" xmlns:xlink="http://www.w3.org/1999/xlink" viewBox="0 0 80 80">
  <defs>
    <style>
      .cls-1, .cls-3 {
        fill: #207fe1;
      }

      .cls-1 {
        stroke: #707070;
      }

      .cls-2 {
        clip-path: url(#clip-path);
      }
    </style>
    <clipPath id="clip-path">
      <rect id="Rectangle_45" data-name="Rectangle 45" class="cls-1" width="80" height="80" transform="translate(287 938)"/>
    </clipPath>
  </defs>
  <g id="Mask_Group_9" data-name="Mask Group 9" class="cls-2" transform="translate(-287 -938)">
    <g id="mail" transform="translate(287 938)">
      <path id="Path_680" data-name="Path 680" class="cls-3" d="M80,17.271V16.96a5.122,5.122,0,0,0-1.468-3.46l-.107-.107a.1.1,0,0,1-.107-.107c-.214-.214-.418-.311-.632-.525-.107,0-.107-.107-.214-.107-.214-.107-.525-.214-.739-.311-.107,0-.107-.107-.214-.107a3.006,3.006,0,0,0-.943-.214h-.214c-.311,0-.739-.107-1.157-.107H5.676a5.089,5.089,0,0,0-1.264.107.364.364,0,0,0-.311.107c-.311.107-.632.107-.836.214-.107,0-.107.107-.214.107-.214.107-.525.214-.739.311l-.107.107c-.214.107-.418.311-.632.418l-.311.311A4.97,4.97,0,0,0,0,16.435V63.574a5.059,5.059,0,0,0,1.992,3.46,6.129,6.129,0,0,0,3.46,1.05H74.528a3.509,3.509,0,0,0,1.05-.107h.214c.311-.107.632-.107.836-.214h.107A4.845,4.845,0,0,0,79.99,63.04V17.368C80,17.378,80,17.378,80,17.271ZM73.284,15.8,40.219,48.023l-7.562-7.348h0L6.726,15.794H73.284ZM3.9,62.1V18.428L28.351,41.939Zm35.272,2.2H7.358L31.189,44.767l7.659,7.455a2.2,2.2,0,0,0,.943.525h.641a1.728,1.728,0,0,0,.943-.525l7.241-7.037L72.545,64.294H39.169Zm36.943-2.1L51.552,42.357,76.112,18.428Z"/>
    </g>
  </g>
</svg>
