<svg xmlns="http://www.w3.org/2000/svg" xmlns:xlink="http://www.w3.org/1999/xlink" viewBox="0 0 80 80">
  <defs>
    <style>
      .cls-1, .cls-3 {
        fill: #207fe1;
      }

      .cls-1 {
        stroke: #707070;
      }

      .cls-2 {
        clip-path: url(#clip-path);
      }
    </style>
    <clipPath id="clip-path">
      <rect id="Rectangle_45" data-name="Rectangle 45" class="cls-1" width="80" height="80" transform="translate(637 938)"/>
    </clipPath>
  </defs>
  <g id="Mask_Group_10" data-name="Mask Group 10" class="cls-2" transform="translate(-637 -938)">
    <g id="download" transform="translate(637 938)">
      <g id="Group_294" data-name="Group 294">
        <path id="Path_681" data-name="Path 681" class="cls-3" d="M26.455,32.868a2.248,2.248,0,0,0,0,3.19L38.413,48.017A2.269,2.269,0,0,0,40,48.685a2.2,2.2,0,0,0,1.587-.668L53.545,36.058a2.256,2.256,0,1,0-3.19-3.19l-8.1,8.1V2.255a2.255,2.255,0,1,0-4.509,0V40.969l-8.1-8.1A2.248,2.248,0,0,0,26.455,32.868Z"/>
        <path id="Path_682" data-name="Path 682" class="cls-3" d="M76.86,51.34,69.01,22.948a2.285,2.285,0,0,0-1.236-1.453l-.217-.1a2.3,2.3,0,0,0-.935-.2H52.476a2.255,2.255,0,0,0,0,4.509H65.1l6.63,24.017H54.2a2.245,2.245,0,0,0-2.255,2.255v2.038a5.41,5.41,0,0,1-5.411,5.411H32.768a5.41,5.41,0,0,1-5.411-5.411V51.975A2.245,2.245,0,0,0,25.1,49.72H8.251l6.664-24.067H27.541a2.255,2.255,0,0,0,0-4.509H13.378a2.3,2.3,0,0,0-.935.2l-.217.1A2.239,2.239,0,0,0,10.99,22.9L3.14,51.29a2.484,2.484,0,0,0-.084.6V63.733A16.287,16.287,0,0,0,19.324,80H60.676A16.287,16.287,0,0,0,76.944,63.733V51.942A1.747,1.747,0,0,0,76.86,51.34ZM72.434,63.733A11.775,11.775,0,0,1,60.676,75.491H19.324A11.775,11.775,0,0,1,7.566,63.733v-9.5H22.881A9.929,9.929,0,0,0,32.8,63.916H46.564a9.929,9.929,0,0,0,9.921-9.687H72.468v9.5Z"/>
      </g>
    </g>
  </g>
</svg>
