<svg xmlns="http://www.w3.org/2000/svg" viewBox="0 0 25.763 20.128">
    <defs>
        <style>
            .cls-1,.cls-3{fill:#fff}.cls-1{stroke:#707070}.cls-2{clip-path:url(#clip-path)}
        </style>
        <clipPath id="clip-path">
            <path id="Rectangle_2" d="M0 0h25.763v20.128H0z" class="cls-1" data-name="Rectangle 2" transform="translate(1127 34)"/>
        </clipPath>
    </defs>
    <g id="Mask_Group_1" class="cls-2" data-name="Mask Group 1" transform="translate(-1127 -34)">
        <path id="skype" d="M22.127 13.641a2.962 2.962 0 0 1-.535-1.747v-.011A10.067 10.067 0 0 0 8.069 2.431a2.967 2.967 0 0 1-1.821.086A4.915 4.915 0 0 0 .93 10.125a2.961 2.961 0 0 1 .535 1.747v.011a10.067 10.067 0 0 0 13.524 9.452 2.967 2.967 0 0 1 1.821-.086 4.915 4.915 0 0 0 5.317-7.607zM11.9 10.079c2.029.483 5.1 1.212 5.1 4.589a3.68 3.68 0 0 1-2.307 3.574 8.385 8.385 0 0 1-3.3.519 7.28 7.28 0 0 1-5.276-2.58 1.514 1.514 0 0 1 2.367-1.888 4.49 4.49 0 0 0 2.909 1.44c2.05.065 2.519-.545 2.579-1.066.074-.636-.492-1.1-2.769-1.644-1.93-.459-4.847-1.153-4.847-4.263 0-.969.394-4.129 5.464-4.129a6.854 6.854 0 0 1 5.17 2.628 1.514 1.514 0 0 1-2.432 1.8 4.547 4.547 0 0 0-2.738-1.4c-1.226-.116-2.437.326-2.437.979-.006.691.341.924 2.517 1.441z" class="cls-3" transform="translate(1128.353 32.181)"/>
    </g>
</svg>
