<svg xmlns="http://www.w3.org/2000/svg" viewBox="0 0 40.129 32.612">
    <defs>
        <style>
            .cls-1{fill:#197bb4}
        </style>
    </defs>
    <path id="Fill_4" d="M40.129 3.86a16.462 16.462 0 0 1-4.729 1.3A8.246 8.246 0 0 0 39.021.6a16.447 16.447 0 0 1-5.226 2A8.237 8.237 0 0 0 19.55 8.234a8.328 8.328 0 0 0 .212 1.876 23.366 23.366 0 0 1-16.969-8.6A8.245 8.245 0 0 0 5.341 12.5a8.2 8.2 0 0 1-3.729-1.03v.1a8.24 8.24 0 0 0 6.6 8.073 8.291 8.291 0 0 1-2.169.29 8.177 8.177 0 0 1-1.543-.147 8.243 8.243 0 0 0 7.69 5.719A16.513 16.513 0 0 1 1.962 29.03 17.113 17.113 0 0 1 0 28.915a23.319 23.319 0 0 0 12.622 3.7c15.142 0 23.424-12.544 23.424-23.425 0-.355-.01-.711-.023-1.066a16.771 16.771 0 0 0 4.106-4.264" class="cls-1" data-name="Fill 4"/>
</svg>
